<?xml version="1.0" encoding="UTF-8" standalone="no"?>
<!DOCTYPE svg PUBLIC "-//W3C//DTD SVG 1.1//EN"
 "http://www.w3.org/Graphics/SVG/1.1/DTD/svg11.dtd">
<!-- Generated by graphviz version 14.0.0 (20250921.2048)
 -->
<!-- Title: ProcessFlowDiagram Pages: 1 -->
<svg width="3119pt" height="1994pt"
 viewBox="0.00 0.00 3119.00 1994.00" xmlns="http://www.w3.org/2000/svg" xmlns:xlink="http://www.w3.org/1999/xlink">
<g id="graph0" class="graph" transform="scale(1 1) rotate(0) translate(36 1958.25)">
<title>ProcessFlowDiagram</title>
<polygon fill="white" stroke="none" points="-36,36 -36,-1958.25 3082.67,-1958.25 3082.67,36 -36,36"/>
<text xml:space="preserve" text-anchor="middle" x="1523.33" y="-1906.85" font-family="Arial" font-size="12.00">Gas&#45;Oil&#45;Water Production Facility</text>
<g id="clust3" class="cluster">
<title>cluster_gas</title>
<polygon fill="#f0f8ff" stroke="#87ceeb" stroke-dasharray="5,2" points="1089.52,-1500 1089.52,-1866 3038.67,-1866 3038.67,-1500 1089.52,-1500"/>
<text xml:space="preserve" text-anchor="middle" x="2064.09" y="-1850.6" font-family="Arial" font-size="12.00">Gas Processing</text>
</g>
<g id="clust4" class="cluster">
<title>cluster_oil</title>
<polygon fill="#faebd7" stroke="#8b4513" stroke-dasharray="5,2" points="700.5,-1082 700.5,-1478 3031.04,-1478 3031.04,-1082 700.5,-1082"/>
<text xml:space="preserve" text-anchor="middle" x="1865.77" y="-1462.6" font-family="Arial" font-size="12.00">Oil Processing</text>
</g>
<g id="clust5" class="cluster">
<title>cluster_separation</title>
<polygon fill="#fffacd" stroke="#ffd700" stroke-dasharray="5,2" points="344,-1192 344,-1335 473,-1335 473,-1192 344,-1192"/>
<text xml:space="preserve" text-anchor="middle" x="408.5" y="-1319.6" font-family="Arial" font-size="12.00">Separation</text>
</g>
<g id="clust6" class="cluster">
<title>cluster_water</title>
<polygon fill="#f0f8ff" stroke="#1e90ff" stroke-dasharray="5,2" points="50.89,-8 50.89,-1074 3031.04,-1074 3031.04,-8 50.89,-8"/>
<text xml:space="preserve" text-anchor="middle" x="1540.97" y="-1058.6" font-family="Arial" font-size="12.00">Water Processing</text>
</g>
<g id="clust7" class="cluster">
<title>cluster_legend</title>
<path fill="white" stroke="gray" d="M20,-1350C20,-1350 404.86,-1350 404.86,-1350 410.86,-1350 416.86,-1356 416.86,-1362 416.86,-1362 416.86,-1880 416.86,-1880 416.86,-1886 410.86,-1892 404.86,-1892 404.86,-1892 20,-1892 20,-1892 14,-1892 8,-1886 8,-1880 8,-1880 8,-1362 8,-1362 8,-1356 14,-1350 20,-1350"/>
<text xml:space="preserve" text-anchor="middle" x="212.43" y="-1878.5" font-family="Arial" font-size="10.00">Legend</text>
</g>
<!-- Well Stream -->
<g id="node1" class="node">
<title>Well Stream</title>
<ellipse fill="#ffffff" stroke="#000000" cx="59.25" cy="-1282" rx="43.2" ry="18"/>
<text xml:space="preserve" text-anchor="middle" x="59.25" y="-1278.5" font-family="Arial" font-size="10.00">Well Stream</text>
</g>
<!-- HP 3&#45;Phase Separator -->
<g id="node15" class="node">
<title>HP 3&#45;Phase Separator</title>
<path fill="#98fb98" stroke="#228b22" d="M822.75,-1212.02C822.75,-1218.52 797.15,-1223.8 765.62,-1223.8 734.1,-1223.8 708.5,-1218.52 708.5,-1212.02 708.5,-1212.02 708.5,-1105.98 708.5,-1105.98 708.5,-1099.48 734.1,-1094.2 765.62,-1094.2 797.15,-1094.2 822.75,-1099.48 822.75,-1105.98 822.75,-1105.98 822.75,-1212.02 822.75,-1212.02"/>
<path fill="none" stroke="#228b22" d="M822.75,-1212.02C822.75,-1205.52 797.15,-1200.24 765.62,-1200.24 734.1,-1200.24 708.5,-1205.52 708.5,-1212.02"/>
<text xml:space="preserve" text-anchor="middle" x="765.62" y="-1155.5" font-family="Arial" font-size="10.00">HP 3&#45;Phase Separator</text>
</g>
<!-- Well Stream&#45;&gt;HP 3&#45;Phase Separator -->
<!-- Inlet Heater -->
<g id="node27" class="node">
<title>Inlet Heater</title>
<polygon fill="#ff6347" stroke="none" points="360,-1263.5 360,-1300.5 457,-1300.5 457,-1263.5 360,-1263.5"/>
<text xml:space="preserve" text-anchor="start" x="366.88" y="-1283.5" font-family="Arial" font-size="10.00"> &#160;&#160;&#160;&#160;&#160;&#160;&#160;&#160;&#160;&#160;&#160;</text>
<text xml:space="preserve" text-anchor="start" x="402.88" y="-1283.5" font-family="Arial" font-size="9.00" fill="white">Inlet Heater</text>
<text xml:space="preserve" text-anchor="start" x="365" y="-1273.5" font-family="Arial" font-size="10.00"> &#160;&#160;&#160;&#160;&#160;&#160;&#160;&#160;&#160;&#160;&#160;</text>
<text xml:space="preserve" text-anchor="start" x="401" y="-1273.5" font-family="Arial" font-size="7.00" fill="white">Heater</text>
<text xml:space="preserve" text-anchor="start" x="422" y="-1273.5" font-family="Arial" font-size="10.00"> &#160;&#160;&#160;&#160;&#160;&#160;&#160;&#160;&#160;</text>
<polygon fill="none" stroke="#8b0000" points="360,-1263.5 360,-1300.5 457,-1300.5 457,-1263.5 360,-1263.5"/>
</g>
<!-- Well Stream&#45;&gt;Inlet Heater -->
<g id="edge21" class="edge">
<title>Well Stream&#45;&gt;Inlet Heater</title>
<path fill="none" stroke="#ffd700" stroke-width="2" d="M102.78,-1282C102.78,-1282 342.25,-1282 342.25,-1282"/>
<polygon fill="#ffd700" stroke="#ffd700" stroke-width="2" points="342.25,-1284.45 349.25,-1282 342.25,-1279.55 342.25,-1284.45"/>
<text xml:space="preserve" text-anchor="middle" x="227.25" y="-1284.15" font-family="Arial" font-size="8.00">Well Stream\n65,0°C, 50,0 bar\n150000 kg/hr</text>
</g>
<!-- 2nd Stage Aftercooler -->
<g id="node2" class="node">
<title>2nd Stage Aftercooler</title>
<polygon fill="#87ceeb" stroke="none" points="2888.17,-1512.5 2888.17,-1549.5 3022.67,-1549.5 3022.67,-1512.5 2888.17,-1512.5"/>
<text xml:space="preserve" text-anchor="start" x="2893.17" y="-1532.5" font-family="Arial" font-size="10.00"> &#160;&#160;&#160;&#160;&#160;&#160;&#160;&#160;&#160;&#160;&#160;</text>
<text xml:space="preserve" text-anchor="start" x="2929.17" y="-1532.5" font-family="Arial" font-size="9.00">2nd Stage Aftercooler</text>
<text xml:space="preserve" text-anchor="start" x="2912.29" y="-1522.5" font-family="Arial" font-size="10.00"> &#160;&#160;&#160;&#160;&#160;&#160;&#160;&#160;&#160;&#160;&#160;</text>
<text xml:space="preserve" text-anchor="start" x="2948.29" y="-1522.5" font-family="Arial" font-size="7.00">Cooler</text>
<text xml:space="preserve" text-anchor="start" x="2968.54" y="-1522.5" font-family="Arial" font-size="10.00"> &#160;&#160;&#160;&#160;&#160;&#160;&#160;&#160;&#160;</text>
<polygon fill="none" stroke="#4682b4" points="2888.17,-1512.5 2888.17,-1549.5 3022.67,-1549.5 3022.67,-1512.5 2888.17,-1512.5"/>
</g>
<!-- Export Gas -->
<g id="node3" class="node">
<title>Export Gas</title>
<ellipse fill="#ffffff" stroke="#000000" cx="2955.42" cy="-1818" rx="43.2" ry="18"/>
<text xml:space="preserve" text-anchor="middle" x="2955.42" y="-1814.5" font-family="Arial" font-size="10.00">Export Gas</text>
</g>
<!-- HP Water Pump -->
<g id="node4" class="node">
<title>HP Water Pump</title>
<path fill="#4169e1" stroke="none" d="M2909.54,-569.88C2909.54,-569.88 3001.29,-569.88 3001.29,-569.88 3006.67,-569.88 3012.04,-575.25 3012.04,-580.62 3012.04,-580.62 3012.04,-591.38 3012.04,-591.38 3012.04,-596.75 3006.67,-602.12 3001.29,-602.12 3001.29,-602.12 2909.54,-602.12 2909.54,-602.12 2904.17,-602.12 2898.79,-596.75 2898.79,-591.38 2898.79,-591.38 2898.79,-580.62 2898.79,-580.62 2898.79,-575.25 2904.17,-569.88 2909.54,-569.88"/>
<text xml:space="preserve" text-anchor="start" x="2907.79" y="-580.83" font-family="Arial" font-size="10.00"> &#160;&#160;&#160;&#160;&#160;&#160;&#160;&#160;&#160;&#160;&#160;&#160;&#160;</text>
<text xml:space="preserve" text-anchor="start" x="2949.79" y="-580.83" font-family="Arial" font-size="14.00" fill="white">▶</text>
<text xml:space="preserve" text-anchor="start" x="2967.04" y="-580.83" font-family="Arial" font-size="10.00"> &#160;&#160;&#160;&#160;&#160;&#160;&#160;&#160;&#160;&#160;&#160;</text>
<path fill="none" stroke="#00008b" stroke-width="2" d="M2909.54,-569.88C2909.54,-569.88 3001.29,-569.88 3001.29,-569.88 3006.67,-569.88 3012.04,-575.25 3012.04,-580.62 3012.04,-580.62 3012.04,-591.38 3012.04,-591.38 3012.04,-596.75 3006.67,-602.12 3001.29,-602.12 3001.29,-602.12 2909.54,-602.12 2909.54,-602.12 2904.17,-602.12 2898.79,-596.75 2898.79,-591.38 2898.79,-591.38 2898.79,-580.62 2898.79,-580.62 2898.79,-575.25 2904.17,-569.88 2909.54,-569.88"/>
<text xml:space="preserve" text-anchor="start" x="2899.17" y="-556.38" font-family="Arial" font-size="10.00"> &#160;&#160;&#160;&#160;&#160;&#160;&#160;&#160;&#160;</text>
<text xml:space="preserve" text-anchor="start" x="2929.17" y="-556.38" font-family="Arial" font-size="8.00">HP Water Pump</text>
<text xml:space="preserve" text-anchor="start" x="2987.67" y="-556.38" font-family="Arial" font-size="10.00"> &#160;&#160;&#160;&#160;&#160;&#160;&#160;</text>
</g>
<!-- HP Water Pump&#45;&gt;HP 3&#45;Phase Separator -->
<!-- HP Gas Cooler -->
<g id="node16" class="node">
<title>HP Gas Cooler</title>
<polygon fill="#87ceeb" stroke="none" points="1105.52,-1512.5 1105.52,-1549.5 1213.02,-1549.5 1213.02,-1512.5 1105.52,-1512.5"/>
<text xml:space="preserve" text-anchor="start" x="1110.52" y="-1532.5" font-family="Arial" font-size="10.00"> &#160;&#160;&#160;&#160;&#160;&#160;&#160;&#160;&#160;&#160;&#160;</text>
<text xml:space="preserve" text-anchor="start" x="1146.52" y="-1532.5" font-family="Arial" font-size="9.00">HP Gas Cooler</text>
<text xml:space="preserve" text-anchor="start" x="1116.14" y="-1522.5" font-family="Arial" font-size="10.00"> &#160;&#160;&#160;&#160;&#160;&#160;&#160;&#160;&#160;&#160;&#160;</text>
<text xml:space="preserve" text-anchor="start" x="1152.14" y="-1522.5" font-family="Arial" font-size="7.00">Cooler</text>
<text xml:space="preserve" text-anchor="start" x="1172.39" y="-1522.5" font-family="Arial" font-size="10.00"> &#160;&#160;&#160;&#160;&#160;&#160;&#160;&#160;&#160;</text>
<polygon fill="none" stroke="#4682b4" points="1105.52,-1512.5 1105.52,-1549.5 1213.02,-1549.5 1213.02,-1512.5 1105.52,-1512.5"/>
</g>
<!-- HP Water Pump&#45;&gt;HP Gas Cooler -->
<!-- HP Water Disposal -->
<g id="node5" class="node">
<title>HP Water Disposal</title>
<ellipse fill="#ffffff" stroke="#000000" cx="2955.42" cy="-233" rx="60.13" ry="18"/>
<text xml:space="preserve" text-anchor="middle" x="2955.42" y="-229.5" font-family="Arial" font-size="10.00">HP Water Disposal</text>
</g>
<!-- MP Gas Vent -->
<g id="node6" class="node">
<title>MP Gas Vent</title>
<ellipse fill="#ffffff" stroke="#000000" cx="2955.42" cy="-1630" rx="44.8" ry="18"/>
<text xml:space="preserve" text-anchor="middle" x="2955.42" y="-1626.5" font-family="Arial" font-size="10.00">MP Gas Vent</text>
</g>
<!-- MP Water Pump -->
<g id="node7" class="node">
<title>MP Water Pump</title>
<path fill="#4169e1" stroke="none" d="M2909.54,-872.88C2909.54,-872.88 3001.29,-872.88 3001.29,-872.88 3006.67,-872.88 3012.04,-878.25 3012.04,-883.62 3012.04,-883.62 3012.04,-894.38 3012.04,-894.38 3012.04,-899.75 3006.67,-905.12 3001.29,-905.12 3001.29,-905.12 2909.54,-905.12 2909.54,-905.12 2904.17,-905.12 2898.79,-899.75 2898.79,-894.38 2898.79,-894.38 2898.79,-883.62 2898.79,-883.62 2898.79,-878.25 2904.17,-872.88 2909.54,-872.88"/>
<text xml:space="preserve" text-anchor="start" x="2907.79" y="-883.83" font-family="Arial" font-size="10.00"> &#160;&#160;&#160;&#160;&#160;&#160;&#160;&#160;&#160;&#160;&#160;&#160;&#160;</text>
<text xml:space="preserve" text-anchor="start" x="2949.79" y="-883.83" font-family="Arial" font-size="14.00" fill="white">▶</text>
<text xml:space="preserve" text-anchor="start" x="2967.04" y="-883.83" font-family="Arial" font-size="10.00"> &#160;&#160;&#160;&#160;&#160;&#160;&#160;&#160;&#160;&#160;&#160;</text>
<path fill="none" stroke="#00008b" stroke-width="2" d="M2909.54,-872.88C2909.54,-872.88 3001.29,-872.88 3001.29,-872.88 3006.67,-872.88 3012.04,-878.25 3012.04,-883.62 3012.04,-883.62 3012.04,-894.38 3012.04,-894.38 3012.04,-899.75 3006.67,-905.12 3001.29,-905.12 3001.29,-905.12 2909.54,-905.12 2909.54,-905.12 2904.17,-905.12 2898.79,-899.75 2898.79,-894.38 2898.79,-894.38 2898.79,-883.62 2898.79,-883.62 2898.79,-878.25 2904.17,-872.88 2909.54,-872.88"/>
<text xml:space="preserve" text-anchor="start" x="2898.79" y="-859.38" font-family="Arial" font-size="10.00"> &#160;&#160;&#160;&#160;&#160;&#160;&#160;&#160;&#160;</text>
<text xml:space="preserve" text-anchor="start" x="2928.79" y="-859.38" font-family="Arial" font-size="8.00">MP Water Pump</text>
<text xml:space="preserve" text-anchor="start" x="2988.04" y="-859.38" font-family="Arial" font-size="10.00"> &#160;&#160;&#160;&#160;&#160;&#160;&#160;</text>
</g>
<!-- MP Water Disposal -->
<g id="node8" class="node">
<title>MP Water Disposal</title>
<ellipse fill="#ffffff" stroke="#000000" cx="2955.42" cy="-118" rx="60.58" ry="18"/>
<text xml:space="preserve" text-anchor="middle" x="2955.42" y="-114.5" font-family="Arial" font-size="10.00">MP Water Disposal</text>
</g>
<!-- LP Gas Vent -->
<g id="node9" class="node">
<title>LP Gas Vent</title>
<ellipse fill="#ffffff" stroke="#000000" cx="2955.42" cy="-1724" rx="43.2" ry="18"/>
<text xml:space="preserve" text-anchor="middle" x="2955.42" y="-1720.5" font-family="Arial" font-size="10.00">LP Gas Vent</text>
</g>
<!-- Oil Export Pump -->
<g id="node10" class="node">
<title>Oil Export Pump</title>
<path fill="#4169e1" stroke="none" d="M2909.54,-1112.88C2909.54,-1112.88 3001.29,-1112.88 3001.29,-1112.88 3006.67,-1112.88 3012.04,-1118.25 3012.04,-1123.62 3012.04,-1123.62 3012.04,-1134.38 3012.04,-1134.38 3012.04,-1139.75 3006.67,-1145.12 3001.29,-1145.12 3001.29,-1145.12 2909.54,-1145.12 2909.54,-1145.12 2904.17,-1145.12 2898.79,-1139.75 2898.79,-1134.38 2898.79,-1134.38 2898.79,-1123.62 2898.79,-1123.62 2898.79,-1118.25 2904.17,-1112.88 2909.54,-1112.88"/>
<text xml:space="preserve" text-anchor="start" x="2907.79" y="-1123.83" font-family="Arial" font-size="10.00"> &#160;&#160;&#160;&#160;&#160;&#160;&#160;&#160;&#160;&#160;&#160;&#160;&#160;</text>
<text xml:space="preserve" text-anchor="start" x="2949.79" y="-1123.83" font-family="Arial" font-size="14.00" fill="white">▶</text>
<text xml:space="preserve" text-anchor="start" x="2967.04" y="-1123.83" font-family="Arial" font-size="10.00"> &#160;&#160;&#160;&#160;&#160;&#160;&#160;&#160;&#160;&#160;&#160;</text>
<path fill="none" stroke="#00008b" stroke-width="2" d="M2909.54,-1112.88C2909.54,-1112.88 3001.29,-1112.88 3001.29,-1112.88 3006.67,-1112.88 3012.04,-1118.25 3012.04,-1123.62 3012.04,-1123.62 3012.04,-1134.38 3012.04,-1134.38 3012.04,-1139.75 3006.67,-1145.12 3001.29,-1145.12 3001.29,-1145.12 2909.54,-1145.12 2909.54,-1145.12 2904.17,-1145.12 2898.79,-1139.75 2898.79,-1134.38 2898.79,-1134.38 2898.79,-1123.62 2898.79,-1123.62 2898.79,-1118.25 2904.17,-1112.88 2909.54,-1112.88"/>
<text xml:space="preserve" text-anchor="start" x="2899.54" y="-1099.38" font-family="Arial" font-size="10.00"> &#160;&#160;&#160;&#160;&#160;&#160;&#160;&#160;&#160;</text>
<text xml:space="preserve" text-anchor="start" x="2929.54" y="-1099.38" font-family="Arial" font-size="8.00">Oil Export Pump</text>
<text xml:space="preserve" text-anchor="start" x="2987.29" y="-1099.38" font-family="Arial" font-size="10.00"> &#160;&#160;&#160;&#160;&#160;&#160;&#160;</text>
</g>
<!-- Oil Export Cooler -->
<g id="node11" class="node">
<title>Oil Export Cooler</title>
<polygon fill="#87ceeb" stroke="none" points="2897.54,-1308.5 2897.54,-1345.5 3013.29,-1345.5 3013.29,-1308.5 2897.54,-1308.5"/>
<text xml:space="preserve" text-anchor="start" x="2902.54" y="-1328.5" font-family="Arial" font-size="10.00"> &#160;&#160;&#160;&#160;&#160;&#160;&#160;&#160;&#160;&#160;&#160;</text>
<text xml:space="preserve" text-anchor="start" x="2938.54" y="-1328.5" font-family="Arial" font-size="9.00">Oil Export Cooler</text>
<text xml:space="preserve" text-anchor="start" x="2912.29" y="-1318.5" font-family="Arial" font-size="10.00"> &#160;&#160;&#160;&#160;&#160;&#160;&#160;&#160;&#160;&#160;&#160;</text>
<text xml:space="preserve" text-anchor="start" x="2948.29" y="-1318.5" font-family="Arial" font-size="7.00">Cooler</text>
<text xml:space="preserve" text-anchor="start" x="2968.54" y="-1318.5" font-family="Arial" font-size="10.00"> &#160;&#160;&#160;&#160;&#160;&#160;&#160;&#160;&#160;</text>
<polygon fill="none" stroke="#4682b4" points="2897.54,-1308.5 2897.54,-1345.5 3013.29,-1345.5 3013.29,-1308.5 2897.54,-1308.5"/>
</g>
<!-- Oil Export Pump&#45;&gt;Oil Export Cooler -->
<g id="edge35" class="edge">
<title>Oil Export Pump&#45;&gt;Oil Export Cooler</title>
<path fill="none" stroke="#8b4513" d="M2900.67,-1151.84C2900.67,-1151.84 2900.67,-1296.02 2900.67,-1296.02"/>
<polygon fill="#8b4513" stroke="#8b4513" points="2898.22,-1296.02 2900.67,-1303.02 2903.12,-1296.02 2898.22,-1296.02"/>
<text xml:space="preserve" text-anchor="middle" x="2730.29" y="-1212.28" font-family="Arial" font-size="8.00">Oil Export Pump out stream\n51,3°C, 10,0 bar\n53360 kg/hr</text>
</g>
<!-- Export Oil -->
<g id="node12" class="node">
<title>Export Oil</title>
<ellipse fill="#ffffff" stroke="#000000" cx="2955.42" cy="-1228" rx="43.2" ry="18"/>
<text xml:space="preserve" text-anchor="middle" x="2955.42" y="-1224.5" font-family="Arial" font-size="10.00">Export Oil</text>
</g>
<!-- LP Water Pump -->
<g id="node13" class="node">
<title>LP Water Pump</title>
<path fill="#4169e1" stroke="none" d="M2909.54,-992.88C2909.54,-992.88 3001.29,-992.88 3001.29,-992.88 3006.67,-992.88 3012.04,-998.25 3012.04,-1003.62 3012.04,-1003.62 3012.04,-1014.38 3012.04,-1014.38 3012.04,-1019.75 3006.67,-1025.12 3001.29,-1025.12 3001.29,-1025.12 2909.54,-1025.12 2909.54,-1025.12 2904.17,-1025.12 2898.79,-1019.75 2898.79,-1014.38 2898.79,-1014.38 2898.79,-1003.62 2898.79,-1003.62 2898.79,-998.25 2904.17,-992.88 2909.54,-992.88"/>
<text xml:space="preserve" text-anchor="start" x="2907.79" y="-1003.83" font-family="Arial" font-size="10.00"> &#160;&#160;&#160;&#160;&#160;&#160;&#160;&#160;&#160;&#160;&#160;&#160;&#160;</text>
<text xml:space="preserve" text-anchor="start" x="2949.79" y="-1003.83" font-family="Arial" font-size="14.00" fill="white">▶</text>
<text xml:space="preserve" text-anchor="start" x="2967.04" y="-1003.83" font-family="Arial" font-size="10.00"> &#160;&#160;&#160;&#160;&#160;&#160;&#160;&#160;&#160;&#160;&#160;</text>
<path fill="none" stroke="#00008b" stroke-width="2" d="M2909.54,-992.88C2909.54,-992.88 3001.29,-992.88 3001.29,-992.88 3006.67,-992.88 3012.04,-998.25 3012.04,-1003.62 3012.04,-1003.62 3012.04,-1014.38 3012.04,-1014.38 3012.04,-1019.75 3006.67,-1025.12 3001.29,-1025.12 3001.29,-1025.12 2909.54,-1025.12 2909.54,-1025.12 2904.17,-1025.12 2898.79,-1019.75 2898.79,-1014.38 2898.79,-1014.38 2898.79,-1003.62 2898.79,-1003.62 2898.79,-998.25 2904.17,-992.88 2909.54,-992.88"/>
<text xml:space="preserve" text-anchor="start" x="2899.92" y="-979.38" font-family="Arial" font-size="10.00"> &#160;&#160;&#160;&#160;&#160;&#160;&#160;&#160;&#160;</text>
<text xml:space="preserve" text-anchor="start" x="2929.92" y="-979.38" font-family="Arial" font-size="8.00">LP Water Pump</text>
<text xml:space="preserve" text-anchor="start" x="2986.92" y="-979.38" font-family="Arial" font-size="10.00"> &#160;&#160;&#160;&#160;&#160;&#160;&#160;</text>
</g>
<!-- LP Water Disposal -->
<g id="node14" class="node">
<title>LP Water Disposal</title>
<ellipse fill="#ffffff" stroke="#000000" cx="2955.42" cy="-423" rx="58.78" ry="18"/>
<text xml:space="preserve" text-anchor="middle" x="2955.42" y="-419.5" font-family="Arial" font-size="10.00">LP Water Disposal</text>
</g>
<!-- HP 3&#45;Phase Separator&#45;&gt;2nd Stage Aftercooler -->
<!-- HP 3&#45;Phase Separator&#45;&gt;Export Gas -->
<!-- HP 3&#45;Phase Separator&#45;&gt;HP Water Pump -->
<!-- HP 3&#45;Phase Separator&#45;&gt;HP Water Pump -->
<g id="edge29" class="edge">
<title>HP 3&#45;Phase Separator:s&#45;&gt;HP Water Pump:n</title>
<path fill="none" stroke="#1e90ff" d="M765.67,-1093.93C765.67,-1093.93 765.67,-571.77 765.67,-571.77 765.67,-571.77 2946.9,-571.77 2946.9,-571.77"/>
<polygon fill="#1e90ff" stroke="#1e90ff" points="2946.9,-574.23 2953.9,-571.78 2946.9,-569.33 2946.9,-574.23"/>
<text xml:space="preserve" text-anchor="middle" x="1834.41" y="-462.15" font-family="Arial" font-size="8.00">waterOutStream\n70,0°C, 50,0 bar\n1224 kg/hr</text>
</g>
<!-- HP 3&#45;Phase Separator&#45;&gt;HP Water Disposal -->
<!-- HP 3&#45;Phase Separator&#45;&gt;MP Gas Vent -->
<!-- HP 3&#45;Phase Separator&#45;&gt;MP Water Pump -->
<!-- HP 3&#45;Phase Separator&#45;&gt;MP Water Disposal -->
<!-- HP 3&#45;Phase Separator&#45;&gt;LP Gas Vent -->
<!-- HP 3&#45;Phase Separator&#45;&gt;Oil Export Pump -->
<!-- HP 3&#45;Phase Separator&#45;&gt;Oil Export Cooler -->
<!-- HP 3&#45;Phase Separator&#45;&gt;Export Oil -->
<!-- HP 3&#45;Phase Separator&#45;&gt;LP Water Pump -->
<!-- HP 3&#45;Phase Separator&#45;&gt;LP Water Disposal -->
<!-- HP 3&#45;Phase Separator&#45;&gt;HP Gas Cooler -->
<!-- HP 3&#45;Phase Separator&#45;&gt;HP Gas Cooler -->
<g id="edge23" class="edge">
<title>HP 3&#45;Phase Separator:n&#45;&gt;HP Gas Cooler:s</title>
<path fill="none" stroke="#87ceeb" stroke-dasharray="5,2" d="M791.67,-1224.07C791.67,-1224.07 791.67,-1533.5 791.67,-1533.5 791.67,-1533.5 1150.75,-1533.5 1150.75,-1533.5"/>
<polygon fill="#87ceeb" stroke="#87ceeb" points="1150.75,-1535.95 1157.75,-1533.5 1150.75,-1531.05 1150.75,-1535.95"/>
<text xml:space="preserve" text-anchor="middle" x="952" y="-1569.15" font-family="Arial" font-size="8.00">gasOutStream\n70,0°C, 50,0 bar\n84722 kg/hr</text>
</g>
<!-- HP&#45;MP Valve -->
<g id="node22" class="node">
<title>HP&#45;MP Valve</title>
<polygon fill="#ffb6c1" stroke="#ff69b4" points="1237.28,-1169 1113.18,-1169 1081.25,-1129 1205.36,-1129 1237.28,-1169"/>
<text xml:space="preserve" text-anchor="middle" x="1159.27" y="-1145.5" font-family="Arial" font-size="10.00">HP&#45;MP Valve</text>
</g>
<!-- HP 3&#45;Phase Separator&#45;&gt;HP&#45;MP Valve -->
<g id="edge28" class="edge">
<title>HP 3&#45;Phase Separator:e&#45;&gt;HP&#45;MP Valve:w</title>
<path fill="none" stroke="#8b4513" d="M823.15,-1149C823.15,-1149 1088.35,-1149 1088.35,-1149"/>
<polygon fill="#8b4513" stroke="#8b4513" points="1088.35,-1151.45 1095.35,-1149 1088.35,-1146.55 1088.35,-1151.45"/>
<text xml:space="preserve" text-anchor="middle" x="952" y="-1150.15" font-family="Arial" font-size="8.00">liquidOutStream\n70,0°C, 50,0 bar\n64055 kg/hr</text>
</g>
<!-- 1st Stage Compressor -->
<g id="node18" class="node">
<title>1st Stage Compressor</title>
<polygon fill="#87ceeb" stroke="#4682b4" points="1705.16,-1681.8 1563.08,-1681.8 1526.53,-1624.2 1668.61,-1624.2 1705.16,-1681.8"/>
<text xml:space="preserve" text-anchor="middle" x="1615.84" y="-1649.5" font-family="Arial" font-size="10.00">1st Stage Compressor</text>
</g>
<!-- HP Gas Cooler&#45;&gt;1st Stage Compressor -->
<g id="edge24" class="edge">
<title>HP Gas Cooler&#45;&gt;1st Stage Compressor</title>
<path fill="none" stroke="#ffd700" stroke-width="2" d="M1190.67,-1553.44C1190.67,-1583.22 1190.67,-1632.1 1190.67,-1632.1 1190.67,-1632.1 1521.05,-1632.1 1521.05,-1632.1"/>
<polygon fill="#ffd700" stroke="#ffd700" stroke-width="2" points="1521.05,-1634.55 1528.05,-1632.1 1521.05,-1629.65 1521.05,-1634.55"/>
<text xml:space="preserve" text-anchor="middle" x="1381.91" y="-1643.15" font-family="Arial" font-size="8.00">outStream\n40,0°C, 50,0 bar\n84722 kg/hr</text>
</g>
<!-- _gas_anchor -->
<!-- 1st Stage Aftercooler -->
<g id="node19" class="node">
<title>1st Stage Aftercooler</title>
<polygon fill="#87ceeb" stroke="none" points="1973.97,-1634.5 1973.97,-1671.5 2104.72,-1671.5 2104.72,-1634.5 1973.97,-1634.5"/>
<text xml:space="preserve" text-anchor="start" x="1978.97" y="-1654.5" font-family="Arial" font-size="10.00"> &#160;&#160;&#160;&#160;&#160;&#160;&#160;&#160;&#160;&#160;&#160;</text>
<text xml:space="preserve" text-anchor="start" x="2014.97" y="-1654.5" font-family="Arial" font-size="9.00">1st Stage Aftercooler</text>
<text xml:space="preserve" text-anchor="start" x="1996.22" y="-1644.5" font-family="Arial" font-size="10.00"> &#160;&#160;&#160;&#160;&#160;&#160;&#160;&#160;&#160;&#160;&#160;</text>
<text xml:space="preserve" text-anchor="start" x="2032.22" y="-1644.5" font-family="Arial" font-size="7.00">Cooler</text>
<text xml:space="preserve" text-anchor="start" x="2052.47" y="-1644.5" font-family="Arial" font-size="10.00"> &#160;&#160;&#160;&#160;&#160;&#160;&#160;&#160;&#160;</text>
<polygon fill="none" stroke="#4682b4" points="1973.97,-1634.5 1973.97,-1671.5 2104.72,-1671.5 2104.72,-1634.5 1973.97,-1634.5"/>
</g>
<!-- 1st Stage Compressor&#45;&gt;1st Stage Aftercooler -->
<g id="edge25" class="edge">
<title>1st Stage Compressor&#45;&gt;1st Stage Aftercooler</title>
<path fill="none" stroke="#ffd700" stroke-width="2" d="M1687.21,-1653C1687.21,-1653 1956.24,-1653 1956.24,-1653"/>
<polygon fill="#ffd700" stroke="#ffd700" stroke-width="2" points="1956.24,-1655.45 1963.24,-1653 1956.24,-1650.55 1956.24,-1655.45"/>
<text xml:space="preserve" text-anchor="middle" x="1834.41" y="-1655.15" font-family="Arial" font-size="8.00">outStream\n70,2°C, 80,0 bar\n84722 kg/hr</text>
</g>
<!-- 2nd Stage Compressor -->
<g id="node20" class="node">
<title>2nd Stage Compressor</title>
<polygon fill="#87ceeb" stroke="#4682b4" points="2580.42,-1681.8 2435.54,-1681.8 2398.27,-1624.2 2543.15,-1624.2 2580.42,-1681.8"/>
<text xml:space="preserve" text-anchor="middle" x="2489.34" y="-1649.5" font-family="Arial" font-size="10.00">2nd Stage Compressor</text>
</g>
<!-- 1st Stage Aftercooler&#45;&gt;2nd Stage Compressor -->
<g id="edge26" class="edge">
<title>1st Stage Aftercooler&#45;&gt;2nd Stage Compressor</title>
<path fill="none" stroke="#ffd700" stroke-width="2" d="M2112.64,-1653C2112.64,-1653 2406.42,-1653 2406.42,-1653"/>
<polygon fill="#ffd700" stroke="#ffd700" stroke-width="2" points="2406.42,-1655.45 2413.42,-1653 2406.42,-1650.55 2406.42,-1655.45"/>
<text xml:space="preserve" text-anchor="middle" x="2256.65" y="-1655.15" font-family="Arial" font-size="8.00">outStream\n40,0°C, 80,0 bar\n84722 kg/hr</text>
</g>
<!-- 2nd Stage Compressor&#45;&gt;2nd Stage Aftercooler -->
<g id="edge27" class="edge">
<title>2nd Stage Compressor&#45;&gt;2nd Stage Aftercooler</title>
<path fill="none" stroke="#ffd700" stroke-width="2" d="M2551.06,-1636.1C2664.72,-1636.1 2895.67,-1636.1 2895.67,-1636.1 2895.67,-1636.1 2895.67,-1563.32 2895.67,-1563.32"/>
<polygon fill="#ffd700" stroke="#ffd700" stroke-width="2" points="2898.12,-1563.32 2895.67,-1556.32 2893.22,-1563.32 2898.12,-1563.32"/>
<text xml:space="preserve" text-anchor="middle" x="2730.29" y="-1643.15" font-family="Arial" font-size="8.00">outStream\n67,5°C, 120,0 bar\n84722 kg/hr</text>
</g>
<!-- _oil_anchor -->
<!-- _oil_anchor&#45;&gt;_gas_anchor -->
<!-- MP 3&#45;Phase Separator -->
<g id="node23" class="node">
<title>MP 3&#45;Phase Separator</title>
<path fill="#98fb98" stroke="#228b22" d="M1673.34,-1208.02C1673.34,-1214.52 1647.57,-1219.8 1615.84,-1219.8 1584.12,-1219.8 1558.34,-1214.52 1558.34,-1208.02 1558.34,-1208.02 1558.34,-1101.98 1558.34,-1101.98 1558.34,-1095.48 1584.12,-1090.2 1615.84,-1090.2 1647.57,-1090.2 1673.34,-1095.48 1673.34,-1101.98 1673.34,-1101.98 1673.34,-1208.02 1673.34,-1208.02"/>
<path fill="none" stroke="#228b22" d="M1673.34,-1208.02C1673.34,-1201.52 1647.57,-1196.24 1615.84,-1196.24 1584.12,-1196.24 1558.34,-1201.52 1558.34,-1208.02"/>
<text xml:space="preserve" text-anchor="middle" x="1615.84" y="-1151.5" font-family="Arial" font-size="10.00">MP 3&#45;Phase Separator</text>
</g>
<!-- HP&#45;MP Valve&#45;&gt;MP 3&#45;Phase Separator -->
<g id="edge30" class="edge">
<title>HP&#45;MP Valve&#45;&gt;MP 3&#45;Phase Separator</title>
<path fill="none" stroke="#ffd700" stroke-width="2" d="M1221.79,-1149C1221.79,-1149 1548,-1149 1548,-1149"/>
<polygon fill="#ffd700" stroke="#ffd700" stroke-width="2" points="1548,-1151.45 1555,-1149 1548,-1146.55 1548,-1151.45"/>
<text xml:space="preserve" text-anchor="middle" x="1381.91" y="-1153.15" font-family="Arial" font-size="8.00">HP&#45;MP Valve out stream\n64,1°C, 15,0 bar\n64055 kg/hr</text>
</g>
<!-- MP 3&#45;Phase Separator&#45;&gt;MP Water Pump -->
<g id="edge32" class="edge">
<title>MP 3&#45;Phase Separator:s&#45;&gt;MP Water Pump:n</title>
<path fill="none" stroke="#1e90ff" d="M1615.67,-1089.93C1615.67,-1089.93 1615.67,-891.38 1615.67,-891.38 1615.67,-891.38 2946.9,-891.38 2946.9,-891.38"/>
<polygon fill="#1e90ff" stroke="#1e90ff" points="2946.9,-893.83 2953.9,-891.38 2946.9,-888.93 2946.9,-893.83"/>
<text xml:space="preserve" text-anchor="middle" x="2256.65" y="-1052.15" font-family="Arial" font-size="8.00">waterOutStream\n64,1°C, 15,0 bar\n0 kg/hr</text>
</g>
<!-- MP&#45;LP Valve -->
<g id="node24" class="node">
<title>MP&#45;LP Valve</title>
<polygon fill="#ffb6c1" stroke="#ff69b4" points="2115.02,-1207 1994.63,-1207 1963.66,-1167 2084.05,-1167 2115.02,-1207"/>
<text xml:space="preserve" text-anchor="middle" x="2039.34" y="-1183.5" font-family="Arial" font-size="10.00">MP&#45;LP Valve</text>
</g>
<!-- MP 3&#45;Phase Separator&#45;&gt;MP&#45;LP Valve -->
<g id="edge31" class="edge">
<title>MP 3&#45;Phase Separator:e&#45;&gt;MP&#45;LP Valve:w</title>
<path fill="none" stroke="#8b4513" d="M1673.69,-1187C1673.69,-1187 1970.29,-1187 1970.29,-1187"/>
<polygon fill="#8b4513" stroke="#8b4513" points="1970.29,-1189.45 1977.29,-1187 1970.29,-1184.55 1970.29,-1189.45"/>
<text xml:space="preserve" text-anchor="middle" x="1834.41" y="-1178.15" font-family="Arial" font-size="8.00">liquidOutStream\n64,1°C, 15,0 bar\n59209 kg/hr</text>
</g>
<!-- LP 3&#45;Phase Separator -->
<g id="node25" class="node">
<title>LP 3&#45;Phase Separator</title>
<path fill="#98fb98" stroke="#228b22" d="M2545.34,-1256.02C2545.34,-1262.52 2520.24,-1267.8 2489.34,-1267.8 2458.45,-1267.8 2433.34,-1262.52 2433.34,-1256.02 2433.34,-1256.02 2433.34,-1149.98 2433.34,-1149.98 2433.34,-1143.48 2458.45,-1138.2 2489.34,-1138.2 2520.24,-1138.2 2545.34,-1143.48 2545.34,-1149.98 2545.34,-1149.98 2545.34,-1256.02 2545.34,-1256.02"/>
<path fill="none" stroke="#228b22" d="M2545.34,-1256.02C2545.34,-1249.52 2520.24,-1244.24 2489.34,-1244.24 2458.45,-1244.24 2433.34,-1249.52 2433.34,-1256.02"/>
<text xml:space="preserve" text-anchor="middle" x="2489.34" y="-1199.5" font-family="Arial" font-size="10.00">LP 3&#45;Phase Separator</text>
</g>
<!-- MP&#45;LP Valve&#45;&gt;LP 3&#45;Phase Separator -->
<g id="edge33" class="edge">
<title>MP&#45;LP Valve&#45;&gt;LP 3&#45;Phase Separator</title>
<path fill="none" stroke="#ffd700" stroke-width="2" d="M2100.03,-1187C2100.03,-1187 2423.12,-1187 2423.12,-1187"/>
<polygon fill="#ffd700" stroke="#ffd700" stroke-width="2" points="2423.12,-1189.45 2430.12,-1187 2423.12,-1184.55 2423.12,-1189.45"/>
<text xml:space="preserve" text-anchor="middle" x="2256.65" y="-1194.15" font-family="Arial" font-size="8.00">MP&#45;LP Valve out stream\n51,0°C, 2,0 bar\n59209 kg/hr</text>
</g>
<!-- LP 3&#45;Phase Separator&#45;&gt;Oil Export Pump -->
<g id="edge34" class="edge">
<title>LP 3&#45;Phase Separator:e&#45;&gt;Oil Export Pump:w</title>
<path fill="none" stroke="#8b4513" d="M2545.59,-1145.16C2545.59,-1145.16 2879.34,-1145.16 2879.34,-1145.16"/>
<polygon fill="#8b4513" stroke="#8b4513" points="2879.34,-1147.61 2886.34,-1145.16 2879.34,-1142.71 2879.34,-1147.61"/>
<text xml:space="preserve" text-anchor="middle" x="2730.29" y="-1358.15" font-family="Arial" font-size="8.00">liquidOutStream\n51,0°C, 2,0 bar\n53360 kg/hr</text>
</g>
<!-- LP 3&#45;Phase Separator&#45;&gt;LP Water Pump -->
<g id="edge36" class="edge">
<title>LP 3&#45;Phase Separator:s&#45;&gt;LP Water Pump:n</title>
<path fill="none" stroke="#1e90ff" d="M2489.67,-1137.93C2489.67,-1137.93 2489.67,-1011.38 2489.67,-1011.38 2489.67,-1011.38 2946.9,-1011.38 2946.9,-1011.38"/>
<polygon fill="#1e90ff" stroke="#1e90ff" points="2946.9,-1013.83 2953.9,-1011.38 2946.9,-1008.93 2946.9,-1013.83"/>
<text xml:space="preserve" text-anchor="middle" x="2730.29" y="-1285.15" font-family="Arial" font-size="8.00">waterOutStream\n51,0°C, 2,0 bar\n0 kg/hr</text>
</g>
<!-- _sep_anchor -->
<!-- _sep_anchor&#45;&gt;_oil_anchor -->
<!-- Inlet Heater&#45;&gt;HP 3&#45;Phase Separator -->
<g id="edge22" class="edge">
<title>Inlet Heater&#45;&gt;HP 3&#45;Phase Separator</title>
<path fill="none" stroke="#ffd700" stroke-width="2" d="M464.91,-1263.65C558.74,-1263.65 736.67,-1263.65 736.67,-1263.65 736.67,-1263.65 736.67,-1234.11 736.67,-1234.11"/>
<polygon fill="#ffd700" stroke="#ffd700" stroke-width="2" points="739.12,-1234.11 736.67,-1227.11 734.22,-1234.11 739.12,-1234.11"/>
<text xml:space="preserve" text-anchor="middle" x="586.75" y="-1228.15" font-family="Arial" font-size="8.00">outStream\n70,0°C, 50,0 bar\n150000 kg/hr</text>
</g>
<!-- _water_anchor -->
<!-- _water_anchor&#45;&gt;_sep_anchor -->
<!-- legend_gas -->
<g id="node29" class="node">
<title>legend_gas</title>
<text xml:space="preserve" text-anchor="middle" x="59.25" y="-1372.5" font-family="Arial" font-size="10.00">Gas Stream</text>
</g>
<!-- legend_gas_line -->
<g id="node30" class="node">
<title>legend_gas_line</title>
<ellipse fill="black" stroke="black" cx="408.5" cy="-1376" rx="0.36" ry="0.36"/>
</g>
<!-- legend_gas&#45;&gt;legend_gas_line -->
<g id="edge37" class="edge">
<title>legend_gas&#45;&gt;legend_gas_line</title>
<path fill="none" stroke="#87ceeb" stroke-dasharray="5,2" d="M93.37,-1376C178.51,-1376 394.43,-1376 407.85,-1376"/>
</g>
<!-- legend_oil -->
<g id="node31" class="node">
<title>legend_oil</title>
<text xml:space="preserve" text-anchor="middle" x="59.25" y="-1466.5" font-family="Arial" font-size="10.00">Oil Stream</text>
</g>
<!-- legend_oil_line -->
<g id="node32" class="node">
<title>legend_oil_line</title>
<ellipse fill="black" stroke="black" cx="408.5" cy="-1470" rx="0.36" ry="0.36"/>
</g>
<!-- legend_oil&#45;&gt;legend_oil_line -->
<g id="edge38" class="edge">
<title>legend_oil&#45;&gt;legend_oil_line</title>
<path fill="none" stroke="#8b4513" d="M90.24,-1470C173.05,-1470 394.09,-1470 407.83,-1470"/>
</g>
<!-- legend_liquid -->
<g id="node33" class="node">
<title>legend_liquid</title>
<text xml:space="preserve" text-anchor="middle" x="59.25" y="-1560.5" font-family="Arial" font-size="10.00">Liquid Stream</text>
</g>
<!-- legend_liquid_line -->
<g id="node34" class="node">
<title>legend_liquid_line</title>
<ellipse fill="black" stroke="black" cx="408.5" cy="-1564" rx="0.36" ry="0.36"/>
</g>
<!-- legend_liquid&#45;&gt;legend_liquid_line -->
<g id="edge39" class="edge">
<title>legend_liquid&#45;&gt;legend_liquid_line</title>
<path fill="none" stroke="#4169e1" d="M96.96,-1564C184.44,-1564 394.8,-1564 407.86,-1564"/>
</g>
<!-- legend_water -->
<g id="node35" class="node">
<title>legend_water</title>
<text xml:space="preserve" text-anchor="middle" x="59.25" y="-1654.5" font-family="Arial" font-size="10.00">Water Stream</text>
</g>
<!-- legend_water_line -->
<g id="node36" class="node">
<title>legend_water_line</title>
<ellipse fill="black" stroke="black" cx="408.5" cy="-1658" rx="0.36" ry="0.36"/>
</g>
<!-- legend_water&#45;&gt;legend_water_line -->
<g id="edge40" class="edge">
<title>legend_water&#45;&gt;legend_water_line</title>
<path fill="none" stroke="#00ced1" d="M96.96,-1658C184.44,-1658 394.8,-1658 407.86,-1658"/>
</g>
<!-- legend_mixed -->
<g id="node37" class="node">
<title>legend_mixed</title>
<text xml:space="preserve" text-anchor="middle" x="59.25" y="-1748.5" font-family="Arial" font-size="10.00">Mixed Stream</text>
</g>
<!-- legend_mixed_line -->
<g id="node38" class="node">
<title>legend_mixed_line</title>
<ellipse fill="black" stroke="black" cx="408.5" cy="-1752" rx="0.36" ry="0.36"/>
</g>
<!-- legend_mixed&#45;&gt;legend_mixed_line -->
<g id="edge41" class="edge">
<title>legend_mixed&#45;&gt;legend_mixed_line</title>
<path fill="none" stroke="#ffd700" stroke-width="2" d="M97.62,-1752C185.52,-1752 394.87,-1752 407.87,-1752"/>
</g>
<!-- legend_recycle -->
<g id="node39" class="node">
<title>legend_recycle</title>
<text xml:space="preserve" text-anchor="middle" x="59.25" y="-1842.5" font-family="Arial" font-size="10.00">Recycle Stream</text>
</g>
<!-- legend_recycle_line -->
<g id="node40" class="node">
<title>legend_recycle_line</title>
<ellipse fill="black" stroke="black" cx="408.5" cy="-1846" rx="0.36" ry="0.36"/>
</g>
<!-- legend_recycle&#45;&gt;legend_recycle_line -->
<g id="edge42" class="edge">
<title>legend_recycle&#45;&gt;legend_recycle_line</title>
<path fill="none" stroke="#9932cc" stroke-width="2" stroke-dasharray="5,2" d="M102.43,-1846C192.95,-1846 395.33,-1846 407.89,-1846"/>
</g>
</g>
</svg>
