<?xml version="1.0" encoding="utf-8" standalone="no"?>
<!DOCTYPE svg PUBLIC "-//W3C//DTD SVG 1.1//EN"
  "http://www.w3.org/Graphics/SVG/1.1/DTD/svg11.dtd">
<svg xmlns:xlink="http://www.w3.org/1999/xlink" width="1144.8pt" height="604.8pt" viewBox="0 0 1144.8 604.8" xmlns="http://www.w3.org/2000/svg" version="1.1">
 <metadata>
  <rdf:RDF xmlns:dc="http://purl.org/dc/elements/1.1/" xmlns:cc="http://creativecommons.org/ns#" xmlns:rdf="http://www.w3.org/1999/02/22-rdf-syntax-ns#">
   <cc:Work>
    <dc:type rdf:resource="http://purl.org/dc/dcmitype/StillImage"/>
    <dc:date>2026-07-16T23:16:20.918053</dc:date>
    <dc:format>image/svg+xml</dc:format>
    <dc:creator>
     <cc:Agent>
      <dc:title>Matplotlib v3.10.8, https://matplotlib.org/</dc:title>
     </cc:Agent>
    </dc:creator>
   </cc:Work>
  </rdf:RDF>
 </metadata>
 <defs>
  <style type="text/css">*{stroke-linejoin: round; stroke-linecap: butt}</style>
 </defs>
 <g id="figure_1">
  <g id="patch_1">
   <path d="M 0 604.8 
L 1144.8 604.8 
L 1144.8 0 
L 0 0 
z
" style="fill: #ffffff"/>
  </g>
  <g id="axes_1">
   <g id="patch_2">
    <path d="M 80.947823 363.372491 
Q 325.685923 402.216897 569.2646 363.556446 
" clip-path="url(#pd29339aa30)" style="fill: none; opacity: 0.7; stroke: #71808d; stroke-width: 1.05; stroke-linecap: round"/>
    <path d="M 565.000538 362.208197 
L 569.2646 363.556446 
L 565.627563 366.158746 
z
" clip-path="url(#pd29339aa30)" style="fill: #71808d; opacity: 0.7; stroke: #71808d; stroke-width: 1.05; stroke-linecap: round"/>
   </g>
   <g id="patch_3">
    <path d="M 80.947823 363.373124 
Q 572.401979 441.690831 1062.696828 363.557241 
" clip-path="url(#pd29339aa30)" style="fill: none; opacity: 0.7; stroke: #71808d; stroke-width: 1.05; stroke-linecap: round"/>
    <path d="M 1058.431923 362.211662 
L 1062.696828 363.557241 
L 1059.061421 366.161817 
z
" clip-path="url(#pd29339aa30)" style="fill: #71808d; opacity: 0.7; stroke: #71808d; stroke-width: 1.05; stroke-linecap: round"/>
   </g>
   <g id="patch_4">
    <path d="M 327.662109 363.372491 
Q 572.400209 402.216897 815.978886 363.556446 
" clip-path="url(#pd29339aa30)" style="fill: none; opacity: 0.7; stroke: #71808d; stroke-width: 1.05; stroke-linecap: round"/>
    <path d="M 811.714824 362.208197 
L 815.978886 363.556446 
L 812.341849 366.158746 
z
" clip-path="url(#pd29339aa30)" style="fill: #71808d; opacity: 0.7; stroke: #71808d; stroke-width: 1.05; stroke-linecap: round"/>
   </g>
   <g id="patch_5">
    <path d="M 327.659286 363.372464 
Q 695.756958 421.954004 1062.695285 363.557028 
" clip-path="url(#pd29339aa30)" style="fill: none; opacity: 0.7; stroke: #71808d; stroke-width: 1.05; stroke-linecap: round"/>
    <path d="M 1058.430661 362.210559 
L 1062.695285 363.557028 
L 1059.059335 366.160847 
z
" clip-path="url(#pd29339aa30)" style="fill: #71808d; opacity: 0.7; stroke: #71808d; stroke-width: 1.05; stroke-linecap: round"/>
   </g>
   <g id="patch_6">
    <path d="M 574.376395 363.372491 
Q 819.114494 402.216897 1062.693171 363.556446 
" clip-path="url(#pd29339aa30)" style="fill: none; opacity: 0.7; stroke: #71808d; stroke-width: 1.05; stroke-linecap: round"/>
    <path d="M 1058.42911 362.208197 
L 1062.693171 363.556446 
L 1059.056135 366.158746 
z
" clip-path="url(#pd29339aa30)" style="fill: #71808d; opacity: 0.7; stroke: #71808d; stroke-width: 1.05; stroke-linecap: round"/>
   </g>
   <g id="patch_7">
    <path d="M 821.09068 363.371224 
Q 942.471876 382.481058 1062.69342 363.553656 
" clip-path="url(#pd29339aa30)" style="fill: none; opacity: 0.7; stroke: #71808d; stroke-width: 1.05; stroke-linecap: round"/>
    <path d="M 1058.431046 362.200079 
L 1062.69342 363.553656 
L 1059.053134 366.151409 
z
" clip-path="url(#pd29339aa30)" style="fill: #71808d; opacity: 0.7; stroke: #71808d; stroke-width: 1.05; stroke-linecap: round"/>
   </g>
   <g id="PathCollection_1">
    <defs>
     <path id="m6a5f19e055" d="M 0 4.873397 
C 1.29244 4.873397 2.532119 4.359905 3.446012 3.446012 
C 4.359905 2.532119 4.873397 1.29244 4.873397 0 
C 4.873397 -1.29244 4.359905 -2.532119 3.446012 -3.446012 
C 2.532119 -4.359905 1.29244 -4.873397 0 -4.873397 
C -1.29244 -4.873397 -2.532119 -4.359905 -3.446012 -3.446012 
C -4.359905 -2.532119 -4.873397 -1.29244 -4.873397 0 
C -4.873397 1.29244 -4.359905 2.532119 -3.446012 3.446012 
C -2.532119 4.359905 -1.29244 4.873397 0 4.873397 
z
" style="stroke: #1565a7; stroke-width: 1.4"/>
    </defs>
    <g clip-path="url(#pd29339aa30)">
     <use xlink:href="#m6a5f19e055" x="96.914286" y="67.857534" style="fill: #dceeff; stroke: #1565a7; stroke-width: 1.4"/>
    </g>
   </g>
   <g id="PathCollection_2">
    <defs>
     <path id="m58aa4b4cd1" d="M 0 4.873397 
C 1.29244 4.873397 2.532119 4.359905 3.446012 3.446012 
C 4.359905 2.532119 4.873397 1.29244 4.873397 0 
C 4.873397 -1.29244 4.359905 -2.532119 3.446012 -3.446012 
C 2.532119 -4.359905 1.29244 -4.873397 0 -4.873397 
C -1.29244 -4.873397 -2.532119 -4.359905 -3.446012 -3.446012 
C -4.359905 -2.532119 -4.873397 -1.29244 -4.873397 0 
C -4.873397 1.29244 -4.359905 2.532119 -3.446012 3.446012 
C -2.532119 4.359905 -1.29244 4.873397 0 4.873397 
z
" style="stroke: #b33a2b; stroke-width: 1.4"/>
    </defs>
    <g clip-path="url(#pd29339aa30)">
     <use xlink:href="#m58aa4b4cd1" x="348.114286" y="67.857534" style="fill: #ffe5e1; stroke: #b33a2b; stroke-width: 1.4"/>
    </g>
   </g>
   <g id="PathCollection_3">
    <defs>
     <path id="m9bb58877aa" d="M 0 4.873397 
C 1.29244 4.873397 2.532119 4.359905 3.446012 3.446012 
C 4.359905 2.532119 4.873397 1.29244 4.873397 0 
C 4.873397 -1.29244 4.359905 -2.532119 3.446012 -3.446012 
C 2.532119 -4.359905 1.29244 -4.873397 0 -4.873397 
C -1.29244 -4.873397 -2.532119 -4.359905 -3.446012 -3.446012 
C -4.359905 -2.532119 -4.873397 -1.29244 -4.873397 0 
C -4.873397 1.29244 -4.359905 2.532119 -3.446012 3.446012 
C -2.532119 4.359905 -1.29244 4.873397 0 4.873397 
z
" style="stroke: #9b7000; stroke-width: 1.4"/>
    </defs>
    <g clip-path="url(#pd29339aa30)">
     <use xlink:href="#m9bb58877aa" x="599.314286" y="67.857534" style="fill: #fff2b8; stroke: #9b7000; stroke-width: 1.4"/>
    </g>
   </g>
   <g id="PathCollection_4">
    <defs>
     <path id="m8f1786d789" d="M 0 4.873397 
C 1.29244 4.873397 2.532119 4.359905 3.446012 3.446012 
C 4.359905 2.532119 4.873397 1.29244 4.873397 0 
C 4.873397 -1.29244 4.359905 -2.532119 3.446012 -3.446012 
C 2.532119 -4.359905 1.29244 -4.873397 0 -4.873397 
C -1.29244 -4.873397 -2.532119 -4.359905 -3.446012 -3.446012 
C -4.359905 -2.532119 -4.873397 -1.29244 -4.873397 0 
C -4.873397 1.29244 -4.359905 2.532119 -3.446012 3.446012 
C -2.532119 4.359905 -1.29244 4.873397 0 4.873397 
z
" style="stroke: #59636b; stroke-width: 1.4"/>
    </defs>
    <g clip-path="url(#pd29339aa30)">
     <use xlink:href="#m8f1786d789" x="850.514286" y="67.857534" style="fill: #e8ecef; stroke: #59636b; stroke-width: 1.4"/>
    </g>
   </g>
   <g id="patch_8">
    <path d="M 43.982857 289.459726 
L 113.96 289.459726 
Q 121.137143 289.459726 121.137143 282.989589 
L 121.137143 249.02137 
Q 121.137143 242.551233 113.96 242.551233 
L 43.982857 242.551233 
Q 36.805714 242.551233 36.805714 249.02137 
L 36.805714 282.989589 
Q 36.805714 289.459726 43.982857 289.459726 
z
" clip-path="url(#pd29339aa30)" style="fill: #dceeff; stroke: #1565a7; stroke-width: 1.5; stroke-linejoin: miter"/>
   </g>
   <g id="patch_9">
    <path d="M 537.411429 289.459726 
L 607.388571 289.459726 
Q 614.565714 289.459726 614.565714 282.989589 
L 614.565714 249.02137 
Q 614.565714 242.551233 607.388571 242.551233 
L 537.411429 242.551233 
Q 530.234286 242.551233 530.234286 249.02137 
L 530.234286 282.989589 
Q 530.234286 289.459726 537.411429 289.459726 
z
" clip-path="url(#pd29339aa30)" style="fill: #dceeff; stroke: #1565a7; stroke-width: 1.5; stroke-linejoin: miter"/>
   </g>
   <g id="patch_10">
    <path d="M 1030.84 289.459726 
L 1100.817143 289.459726 
Q 1107.994286 289.459726 1107.994286 282.989589 
L 1107.994286 249.02137 
Q 1107.994286 242.551233 1100.817143 242.551233 
L 1030.84 242.551233 
Q 1023.662857 242.551233 1023.662857 249.02137 
L 1023.662857 282.989589 
Q 1023.662857 289.459726 1030.84 289.459726 
z
" clip-path="url(#pd29339aa30)" style="fill: #dceeff; stroke: #1565a7; stroke-width: 1.5; stroke-linejoin: miter"/>
   </g>
   <g id="patch_11">
    <path d="M 48.468571 363.057534 
L 64.617143 342.838356 
L 93.325714 383.276712 
L 109.474286 363.057534 
z
" clip-path="url(#pd29339aa30)" style="fill: #ffe5e1; stroke: #b33a2b; stroke-width: 1.5; stroke-linejoin: miter"/>
   </g>
   <g id="patch_12">
    <path d="M 295.182857 363.057534 
L 311.331429 342.838356 
L 340.04 383.276712 
L 356.188571 363.057534 
z
" clip-path="url(#pd29339aa30)" style="fill: #ffe5e1; stroke: #b33a2b; stroke-width: 1.5; stroke-linejoin: miter"/>
   </g>
   <g id="patch_13">
    <path d="M 541.897143 363.057534 
L 558.045714 342.838356 
L 586.754286 383.276712 
L 602.902857 363.057534 
z
" clip-path="url(#pd29339aa30)" style="fill: #ffe5e1; stroke: #b33a2b; stroke-width: 1.5; stroke-linejoin: miter"/>
   </g>
   <g id="patch_14">
    <path d="M 788.611429 363.057534 
L 804.76 342.838356 
L 833.468571 383.276712 
L 849.617143 363.057534 
z
" clip-path="url(#pd29339aa30)" style="fill: #ffe5e1; stroke: #b33a2b; stroke-width: 1.5; stroke-linejoin: miter"/>
   </g>
   <g id="patch_15">
    <path d="M 1035.325714 363.057534 
L 1051.474286 342.838356 
L 1080.182857 383.276712 
L 1096.331429 363.057534 
z
" clip-path="url(#pd29339aa30)" style="fill: #ffe5e1; stroke: #b33a2b; stroke-width: 1.5; stroke-linejoin: miter"/>
   </g>
   <g id="text_1">
    <!-- Process equipment -->
    <g transform="translate(119.342857 70.340972) scale(0.09 -0.09)">
     <defs>
      <path id="DejaVuSans-50" d="M 1259 4147 
L 1259 2394 
L 2053 2394 
Q 2494 2394 2734 2622 
Q 2975 2850 2975 3272 
Q 2975 3691 2734 3919 
Q 2494 4147 2053 4147 
L 1259 4147 
z
M 628 4666 
L 2053 4666 
Q 2838 4666 3239 4311 
Q 3641 3956 3641 3272 
Q 3641 2581 3239 2228 
Q 2838 1875 2053 1875 
L 1259 1875 
L 1259 0 
L 628 0 
L 628 4666 
z
" transform="scale(0.015625)"/>
      <path id="DejaVuSans-72" d="M 2631 2963 
Q 2534 3019 2420 3045 
Q 2306 3072 2169 3072 
Q 1681 3072 1420 2755 
Q 1159 2438 1159 1844 
L 1159 0 
L 581 0 
L 581 3500 
L 1159 3500 
L 1159 2956 
Q 1341 3275 1631 3429 
Q 1922 3584 2338 3584 
Q 2397 3584 2469 3576 
Q 2541 3569 2628 3553 
L 2631 2963 
z
" transform="scale(0.015625)"/>
      <path id="DejaVuSans-6f" d="M 1959 3097 
Q 1497 3097 1228 2736 
Q 959 2375 959 1747 
Q 959 1119 1226 758 
Q 1494 397 1959 397 
Q 2419 397 2687 759 
Q 2956 1122 2956 1747 
Q 2956 2369 2687 2733 
Q 2419 3097 1959 3097 
z
M 1959 3584 
Q 2709 3584 3137 3096 
Q 3566 2609 3566 1747 
Q 3566 888 3137 398 
Q 2709 -91 1959 -91 
Q 1206 -91 779 398 
Q 353 888 353 1747 
Q 353 2609 779 3096 
Q 1206 3584 1959 3584 
z
" transform="scale(0.015625)"/>
      <path id="DejaVuSans-63" d="M 3122 3366 
L 3122 2828 
Q 2878 2963 2633 3030 
Q 2388 3097 2138 3097 
Q 1578 3097 1268 2742 
Q 959 2388 959 1747 
Q 959 1106 1268 751 
Q 1578 397 2138 397 
Q 2388 397 2633 464 
Q 2878 531 3122 666 
L 3122 134 
Q 2881 22 2623 -34 
Q 2366 -91 2075 -91 
Q 1284 -91 818 406 
Q 353 903 353 1747 
Q 353 2603 823 3093 
Q 1294 3584 2113 3584 
Q 2378 3584 2631 3529 
Q 2884 3475 3122 3366 
z
" transform="scale(0.015625)"/>
      <path id="DejaVuSans-65" d="M 3597 1894 
L 3597 1613 
L 953 1613 
Q 991 1019 1311 708 
Q 1631 397 2203 397 
Q 2534 397 2845 478 
Q 3156 559 3463 722 
L 3463 178 
Q 3153 47 2828 -22 
Q 2503 -91 2169 -91 
Q 1331 -91 842 396 
Q 353 884 353 1716 
Q 353 2575 817 3079 
Q 1281 3584 2069 3584 
Q 2775 3584 3186 3129 
Q 3597 2675 3597 1894 
z
M 3022 2063 
Q 3016 2534 2758 2815 
Q 2500 3097 2075 3097 
Q 1594 3097 1305 2825 
Q 1016 2553 972 2059 
L 3022 2063 
z
" transform="scale(0.015625)"/>
      <path id="DejaVuSans-73" d="M 2834 3397 
L 2834 2853 
Q 2591 2978 2328 3040 
Q 2066 3103 1784 3103 
Q 1356 3103 1142 2972 
Q 928 2841 928 2578 
Q 928 2378 1081 2264 
Q 1234 2150 1697 2047 
L 1894 2003 
Q 2506 1872 2764 1633 
Q 3022 1394 3022 966 
Q 3022 478 2636 193 
Q 2250 -91 1575 -91 
Q 1294 -91 989 -36 
Q 684 19 347 128 
L 347 722 
Q 666 556 975 473 
Q 1284 391 1588 391 
Q 1994 391 2212 530 
Q 2431 669 2431 922 
Q 2431 1156 2273 1281 
Q 2116 1406 1581 1522 
L 1381 1569 
Q 847 1681 609 1914 
Q 372 2147 372 2553 
Q 372 3047 722 3315 
Q 1072 3584 1716 3584 
Q 2034 3584 2315 3537 
Q 2597 3491 2834 3397 
z
" transform="scale(0.015625)"/>
      <path id="DejaVuSans-20" transform="scale(0.015625)"/>
      <path id="DejaVuSans-71" d="M 947 1747 
Q 947 1113 1208 752 
Q 1469 391 1925 391 
Q 2381 391 2643 752 
Q 2906 1113 2906 1747 
Q 2906 2381 2643 2742 
Q 2381 3103 1925 3103 
Q 1469 3103 1208 2742 
Q 947 2381 947 1747 
z
M 2906 525 
Q 2725 213 2448 61 
Q 2172 -91 1784 -91 
Q 1150 -91 751 415 
Q 353 922 353 1747 
Q 353 2572 751 3078 
Q 1150 3584 1784 3584 
Q 2172 3584 2448 3432 
Q 2725 3281 2906 2969 
L 2906 3500 
L 3481 3500 
L 3481 -1331 
L 2906 -1331 
L 2906 525 
z
" transform="scale(0.015625)"/>
      <path id="DejaVuSans-75" d="M 544 1381 
L 544 3500 
L 1119 3500 
L 1119 1403 
Q 1119 906 1312 657 
Q 1506 409 1894 409 
Q 2359 409 2629 706 
Q 2900 1003 2900 1516 
L 2900 3500 
L 3475 3500 
L 3475 0 
L 2900 0 
L 2900 538 
Q 2691 219 2414 64 
Q 2138 -91 1772 -91 
Q 1169 -91 856 284 
Q 544 659 544 1381 
z
M 1991 3584 
L 1991 3584 
z
" transform="scale(0.015625)"/>
      <path id="DejaVuSans-69" d="M 603 3500 
L 1178 3500 
L 1178 0 
L 603 0 
L 603 3500 
z
M 603 4863 
L 1178 4863 
L 1178 4134 
L 603 4134 
L 603 4863 
z
" transform="scale(0.015625)"/>
      <path id="DejaVuSans-70" d="M 1159 525 
L 1159 -1331 
L 581 -1331 
L 581 3500 
L 1159 3500 
L 1159 2969 
Q 1341 3281 1617 3432 
Q 1894 3584 2278 3584 
Q 2916 3584 3314 3078 
Q 3713 2572 3713 1747 
Q 3713 922 3314 415 
Q 2916 -91 2278 -91 
Q 1894 -91 1617 61 
Q 1341 213 1159 525 
z
M 3116 1747 
Q 3116 2381 2855 2742 
Q 2594 3103 2138 3103 
Q 1681 3103 1420 2742 
Q 1159 2381 1159 1747 
Q 1159 1113 1420 752 
Q 1681 391 2138 391 
Q 2594 391 2855 752 
Q 3116 1113 3116 1747 
z
" transform="scale(0.015625)"/>
      <path id="DejaVuSans-6d" d="M 3328 2828 
Q 3544 3216 3844 3400 
Q 4144 3584 4550 3584 
Q 5097 3584 5394 3201 
Q 5691 2819 5691 2113 
L 5691 0 
L 5113 0 
L 5113 2094 
Q 5113 2597 4934 2840 
Q 4756 3084 4391 3084 
Q 3944 3084 3684 2787 
Q 3425 2491 3425 1978 
L 3425 0 
L 2847 0 
L 2847 2094 
Q 2847 2600 2669 2842 
Q 2491 3084 2119 3084 
Q 1678 3084 1418 2786 
Q 1159 2488 1159 1978 
L 1159 0 
L 581 0 
L 581 3500 
L 1159 3500 
L 1159 2956 
Q 1356 3278 1631 3431 
Q 1906 3584 2284 3584 
Q 2666 3584 2933 3390 
Q 3200 3197 3328 2828 
z
" transform="scale(0.015625)"/>
      <path id="DejaVuSans-6e" d="M 3513 2113 
L 3513 0 
L 2938 0 
L 2938 2094 
Q 2938 2591 2744 2837 
Q 2550 3084 2163 3084 
Q 1697 3084 1428 2787 
Q 1159 2491 1159 1978 
L 1159 0 
L 581 0 
L 581 3500 
L 1159 3500 
L 1159 2956 
Q 1366 3272 1645 3428 
Q 1925 3584 2291 3584 
Q 2894 3584 3203 3211 
Q 3513 2838 3513 2113 
z
" transform="scale(0.015625)"/>
      <path id="DejaVuSans-74" d="M 1172 4494 
L 1172 3500 
L 2356 3500 
L 2356 3053 
L 1172 3053 
L 1172 1153 
Q 1172 725 1289 603 
Q 1406 481 1766 481 
L 2356 481 
L 2356 0 
L 1766 0 
Q 1100 0 847 248 
Q 594 497 594 1153 
L 594 3053 
L 172 3053 
L 172 3500 
L 594 3500 
L 594 4494 
L 1172 4494 
z
" transform="scale(0.015625)"/>
     </defs>
     <use xlink:href="#DejaVuSans-50"/>
     <use xlink:href="#DejaVuSans-72" transform="translate(58.552734 0)"/>
     <use xlink:href="#DejaVuSans-6f" transform="translate(97.416016 0)"/>
     <use xlink:href="#DejaVuSans-63" transform="translate(158.597656 0)"/>
     <use xlink:href="#DejaVuSans-65" transform="translate(213.578125 0)"/>
     <use xlink:href="#DejaVuSans-73" transform="translate(275.101562 0)"/>
     <use xlink:href="#DejaVuSans-73" transform="translate(327.201172 0)"/>
     <use xlink:href="#DejaVuSans-20" transform="translate(379.300781 0)"/>
     <use xlink:href="#DejaVuSans-65" transform="translate(411.087891 0)"/>
     <use xlink:href="#DejaVuSans-71" transform="translate(472.611328 0)"/>
     <use xlink:href="#DejaVuSans-75" transform="translate(536.087891 0)"/>
     <use xlink:href="#DejaVuSans-69" transform="translate(599.466797 0)"/>
     <use xlink:href="#DejaVuSans-70" transform="translate(627.25 0)"/>
     <use xlink:href="#DejaVuSans-6d" transform="translate(690.726562 0)"/>
     <use xlink:href="#DejaVuSans-65" transform="translate(788.138672 0)"/>
     <use xlink:href="#DejaVuSans-6e" transform="translate(849.662109 0)"/>
     <use xlink:href="#DejaVuSans-74" transform="translate(913.041016 0)"/>
    </g>
   </g>
   <g id="text_2">
    <!-- Piping / valves -->
    <g transform="translate(370.542857 70.340972) scale(0.09 -0.09)">
     <defs>
      <path id="DejaVuSans-67" d="M 2906 1791 
Q 2906 2416 2648 2759 
Q 2391 3103 1925 3103 
Q 1463 3103 1205 2759 
Q 947 2416 947 1791 
Q 947 1169 1205 825 
Q 1463 481 1925 481 
Q 2391 481 2648 825 
Q 2906 1169 2906 1791 
z
M 3481 434 
Q 3481 -459 3084 -895 
Q 2688 -1331 1869 -1331 
Q 1566 -1331 1297 -1286 
Q 1028 -1241 775 -1147 
L 775 -588 
Q 1028 -725 1275 -790 
Q 1522 -856 1778 -856 
Q 2344 -856 2625 -561 
Q 2906 -266 2906 331 
L 2906 616 
Q 2728 306 2450 153 
Q 2172 0 1784 0 
Q 1141 0 747 490 
Q 353 981 353 1791 
Q 353 2603 747 3093 
Q 1141 3584 1784 3584 
Q 2172 3584 2450 3431 
Q 2728 3278 2906 2969 
L 2906 3500 
L 3481 3500 
L 3481 434 
z
" transform="scale(0.015625)"/>
      <path id="DejaVuSans-2f" d="M 1625 4666 
L 2156 4666 
L 531 -594 
L 0 -594 
L 1625 4666 
z
" transform="scale(0.015625)"/>
      <path id="DejaVuSans-76" d="M 191 3500 
L 800 3500 
L 1894 563 
L 2988 3500 
L 3597 3500 
L 2284 0 
L 1503 0 
L 191 3500 
z
" transform="scale(0.015625)"/>
      <path id="DejaVuSans-61" d="M 2194 1759 
Q 1497 1759 1228 1600 
Q 959 1441 959 1056 
Q 959 750 1161 570 
Q 1363 391 1709 391 
Q 2188 391 2477 730 
Q 2766 1069 2766 1631 
L 2766 1759 
L 2194 1759 
z
M 3341 1997 
L 3341 0 
L 2766 0 
L 2766 531 
Q 2569 213 2275 61 
Q 1981 -91 1556 -91 
Q 1019 -91 701 211 
Q 384 513 384 1019 
Q 384 1609 779 1909 
Q 1175 2209 1959 2209 
L 2766 2209 
L 2766 2266 
Q 2766 2663 2505 2880 
Q 2244 3097 1772 3097 
Q 1472 3097 1187 3025 
Q 903 2953 641 2809 
L 641 3341 
Q 956 3463 1253 3523 
Q 1550 3584 1831 3584 
Q 2591 3584 2966 3190 
Q 3341 2797 3341 1997 
z
" transform="scale(0.015625)"/>
      <path id="DejaVuSans-6c" d="M 603 4863 
L 1178 4863 
L 1178 0 
L 603 0 
L 603 4863 
z
" transform="scale(0.015625)"/>
     </defs>
     <use xlink:href="#DejaVuSans-50"/>
     <use xlink:href="#DejaVuSans-69" transform="translate(58.052734 0)"/>
     <use xlink:href="#DejaVuSans-70" transform="translate(85.835938 0)"/>
     <use xlink:href="#DejaVuSans-69" transform="translate(149.3125 0)"/>
     <use xlink:href="#DejaVuSans-6e" transform="translate(177.095703 0)"/>
     <use xlink:href="#DejaVuSans-67" transform="translate(240.474609 0)"/>
     <use xlink:href="#DejaVuSans-20" transform="translate(303.951172 0)"/>
     <use xlink:href="#DejaVuSans-2f" transform="translate(335.738281 0)"/>
     <use xlink:href="#DejaVuSans-20" transform="translate(369.429688 0)"/>
     <use xlink:href="#DejaVuSans-76" transform="translate(401.216797 0)"/>
     <use xlink:href="#DejaVuSans-61" transform="translate(460.396484 0)"/>
     <use xlink:href="#DejaVuSans-6c" transform="translate(521.675781 0)"/>
     <use xlink:href="#DejaVuSans-76" transform="translate(549.458984 0)"/>
     <use xlink:href="#DejaVuSans-65" transform="translate(608.638672 0)"/>
     <use xlink:href="#DejaVuSans-73" transform="translate(670.162109 0)"/>
    </g>
   </g>
   <g id="text_3">
    <!-- Instrumentation / signals -->
    <g transform="translate(621.742857 70.340972) scale(0.09 -0.09)">
     <defs>
      <path id="DejaVuSans-49" d="M 628 4666 
L 1259 4666 
L 1259 0 
L 628 0 
L 628 4666 
z
" transform="scale(0.015625)"/>
     </defs>
     <use xlink:href="#DejaVuSans-49"/>
     <use xlink:href="#DejaVuSans-6e" transform="translate(29.492188 0)"/>
     <use xlink:href="#DejaVuSans-73" transform="translate(92.871094 0)"/>
     <use xlink:href="#DejaVuSans-74" transform="translate(144.970703 0)"/>
     <use xlink:href="#DejaVuSans-72" transform="translate(184.179688 0)"/>
     <use xlink:href="#DejaVuSans-75" transform="translate(225.292969 0)"/>
     <use xlink:href="#DejaVuSans-6d" transform="translate(288.671875 0)"/>
     <use xlink:href="#DejaVuSans-65" transform="translate(386.083984 0)"/>
     <use xlink:href="#DejaVuSans-6e" transform="translate(447.607422 0)"/>
     <use xlink:href="#DejaVuSans-74" transform="translate(510.986328 0)"/>
     <use xlink:href="#DejaVuSans-61" transform="translate(550.195312 0)"/>
     <use xlink:href="#DejaVuSans-74" transform="translate(611.474609 0)"/>
     <use xlink:href="#DejaVuSans-69" transform="translate(650.683594 0)"/>
     <use xlink:href="#DejaVuSans-6f" transform="translate(678.466797 0)"/>
     <use xlink:href="#DejaVuSans-6e" transform="translate(739.648438 0)"/>
     <use xlink:href="#DejaVuSans-20" transform="translate(803.027344 0)"/>
     <use xlink:href="#DejaVuSans-2f" transform="translate(834.814453 0)"/>
     <use xlink:href="#DejaVuSans-20" transform="translate(868.505859 0)"/>
     <use xlink:href="#DejaVuSans-73" transform="translate(900.292969 0)"/>
     <use xlink:href="#DejaVuSans-69" transform="translate(952.392578 0)"/>
     <use xlink:href="#DejaVuSans-67" transform="translate(980.175781 0)"/>
     <use xlink:href="#DejaVuSans-6e" transform="translate(1043.652344 0)"/>
     <use xlink:href="#DejaVuSans-61" transform="translate(1107.03125 0)"/>
     <use xlink:href="#DejaVuSans-6c" transform="translate(1168.310547 0)"/>
     <use xlink:href="#DejaVuSans-73" transform="translate(1196.09375 0)"/>
    </g>
   </g>
   <g id="text_4">
    <!-- Nozzles / connection nodes -->
    <g transform="translate(872.942857 70.340972) scale(0.09 -0.09)">
     <defs>
      <path id="DejaVuSans-4e" d="M 628 4666 
L 1478 4666 
L 3547 763 
L 3547 4666 
L 4159 4666 
L 4159 0 
L 3309 0 
L 1241 3903 
L 1241 0 
L 628 0 
L 628 4666 
z
" transform="scale(0.015625)"/>
      <path id="DejaVuSans-7a" d="M 353 3500 
L 3084 3500 
L 3084 2975 
L 922 459 
L 3084 459 
L 3084 0 
L 275 0 
L 275 525 
L 2438 3041 
L 353 3041 
L 353 3500 
z
" transform="scale(0.015625)"/>
      <path id="DejaVuSans-64" d="M 2906 2969 
L 2906 4863 
L 3481 4863 
L 3481 0 
L 2906 0 
L 2906 525 
Q 2725 213 2448 61 
Q 2172 -91 1784 -91 
Q 1150 -91 751 415 
Q 353 922 353 1747 
Q 353 2572 751 3078 
Q 1150 3584 1784 3584 
Q 2172 3584 2448 3432 
Q 2725 3281 2906 2969 
z
M 947 1747 
Q 947 1113 1208 752 
Q 1469 391 1925 391 
Q 2381 391 2643 752 
Q 2906 1113 2906 1747 
Q 2906 2381 2643 2742 
Q 2381 3103 1925 3103 
Q 1469 3103 1208 2742 
Q 947 2381 947 1747 
z
" transform="scale(0.015625)"/>
     </defs>
     <use xlink:href="#DejaVuSans-4e"/>
     <use xlink:href="#DejaVuSans-6f" transform="translate(74.804688 0)"/>
     <use xlink:href="#DejaVuSans-7a" transform="translate(135.986328 0)"/>
     <use xlink:href="#DejaVuSans-7a" transform="translate(188.476562 0)"/>
     <use xlink:href="#DejaVuSans-6c" transform="translate(240.966797 0)"/>
     <use xlink:href="#DejaVuSans-65" transform="translate(268.75 0)"/>
     <use xlink:href="#DejaVuSans-73" transform="translate(330.273438 0)"/>
     <use xlink:href="#DejaVuSans-20" transform="translate(382.373047 0)"/>
     <use xlink:href="#DejaVuSans-2f" transform="translate(414.160156 0)"/>
     <use xlink:href="#DejaVuSans-20" transform="translate(447.851562 0)"/>
     <use xlink:href="#DejaVuSans-63" transform="translate(479.638672 0)"/>
     <use xlink:href="#DejaVuSans-6f" transform="translate(534.619141 0)"/>
     <use xlink:href="#DejaVuSans-6e" transform="translate(595.800781 0)"/>
     <use xlink:href="#DejaVuSans-6e" transform="translate(659.179688 0)"/>
     <use xlink:href="#DejaVuSans-65" transform="translate(722.558594 0)"/>
     <use xlink:href="#DejaVuSans-63" transform="translate(784.082031 0)"/>
     <use xlink:href="#DejaVuSans-74" transform="translate(839.0625 0)"/>
     <use xlink:href="#DejaVuSans-69" transform="translate(878.271484 0)"/>
     <use xlink:href="#DejaVuSans-6f" transform="translate(906.054688 0)"/>
     <use xlink:href="#DejaVuSans-6e" transform="translate(967.236328 0)"/>
     <use xlink:href="#DejaVuSans-20" transform="translate(1030.615234 0)"/>
     <use xlink:href="#DejaVuSans-6e" transform="translate(1062.402344 0)"/>
     <use xlink:href="#DejaVuSans-6f" transform="translate(1125.78125 0)"/>
     <use xlink:href="#DejaVuSans-64" transform="translate(1186.962891 0)"/>
     <use xlink:href="#DejaVuSans-65" transform="translate(1250.439453 0)"/>
     <use xlink:href="#DejaVuSans-73" transform="translate(1311.962891 0)"/>
    </g>
   </g>
   <g id="text_5">
    <!-- NeqSim native DEXPI 2.0 — structural P&amp;ID preview -->
    <g style="fill: #142b3b" transform="translate(78.971429 27.419178) scale(0.17 -0.17)">
     <defs>
      <path id="DejaVuSans-Bold-4e" d="M 588 4666 
L 1931 4666 
L 3628 1466 
L 3628 4666 
L 4769 4666 
L 4769 0 
L 3425 0 
L 1728 3200 
L 1728 0 
L 588 0 
L 588 4666 
z
" transform="scale(0.015625)"/>
      <path id="DejaVuSans-Bold-65" d="M 4031 1759 
L 4031 1441 
L 1416 1441 
Q 1456 1047 1700 850 
Q 1944 653 2381 653 
Q 2734 653 3104 758 
Q 3475 863 3866 1075 
L 3866 213 
Q 3469 63 3072 -14 
Q 2675 -91 2278 -91 
Q 1328 -91 801 392 
Q 275 875 275 1747 
Q 275 2603 792 3093 
Q 1309 3584 2216 3584 
Q 3041 3584 3536 3087 
Q 4031 2591 4031 1759 
z
M 2881 2131 
Q 2881 2450 2695 2645 
Q 2509 2841 2209 2841 
Q 1884 2841 1681 2658 
Q 1478 2475 1428 2131 
L 2881 2131 
z
" transform="scale(0.015625)"/>
      <path id="DejaVuSans-Bold-71" d="M 2181 2772 
Q 1825 2772 1636 2509 
Q 1447 2247 1447 1747 
Q 1447 1247 1636 984 
Q 1825 722 2181 722 
Q 2541 722 2730 984 
Q 2919 1247 2919 1747 
Q 2919 2247 2730 2509 
Q 2541 2772 2181 2772 
z
M 2919 506 
Q 2688 197 2409 53 
Q 2131 -91 1766 -91 
Q 1119 -91 703 423 
Q 288 938 288 1747 
Q 288 2556 703 3067 
Q 1119 3578 1766 3578 
Q 2131 3578 2409 3434 
Q 2688 3291 2919 2981 
L 2919 3500 
L 4044 3500 
L 4044 -1331 
L 2919 -1331 
L 2919 506 
z
" transform="scale(0.015625)"/>
      <path id="DejaVuSans-Bold-53" d="M 3834 4519 
L 3834 3531 
Q 3450 3703 3084 3790 
Q 2719 3878 2394 3878 
Q 1963 3878 1756 3759 
Q 1550 3641 1550 3391 
Q 1550 3203 1689 3098 
Q 1828 2994 2194 2919 
L 2706 2816 
Q 3484 2659 3812 2340 
Q 4141 2022 4141 1434 
Q 4141 663 3683 286 
Q 3225 -91 2284 -91 
Q 1841 -91 1394 -6 
Q 947 78 500 244 
L 500 1259 
Q 947 1022 1364 901 
Q 1781 781 2169 781 
Q 2563 781 2772 912 
Q 2981 1044 2981 1288 
Q 2981 1506 2839 1625 
Q 2697 1744 2272 1838 
L 1806 1941 
Q 1106 2091 782 2419 
Q 459 2747 459 3303 
Q 459 4000 909 4375 
Q 1359 4750 2203 4750 
Q 2588 4750 2994 4692 
Q 3400 4634 3834 4519 
z
" transform="scale(0.015625)"/>
      <path id="DejaVuSans-Bold-69" d="M 538 3500 
L 1656 3500 
L 1656 0 
L 538 0 
L 538 3500 
z
M 538 4863 
L 1656 4863 
L 1656 3950 
L 538 3950 
L 538 4863 
z
" transform="scale(0.015625)"/>
      <path id="DejaVuSans-Bold-6d" d="M 3781 2919 
Q 3994 3244 4286 3414 
Q 4578 3584 4928 3584 
Q 5531 3584 5847 3212 
Q 6163 2841 6163 2131 
L 6163 0 
L 5038 0 
L 5038 1825 
Q 5041 1866 5042 1909 
Q 5044 1953 5044 2034 
Q 5044 2406 4934 2573 
Q 4825 2741 4581 2741 
Q 4263 2741 4089 2478 
Q 3916 2216 3909 1719 
L 3909 0 
L 2784 0 
L 2784 1825 
Q 2784 2406 2684 2573 
Q 2584 2741 2328 2741 
Q 2006 2741 1831 2477 
Q 1656 2213 1656 1722 
L 1656 0 
L 531 0 
L 531 3500 
L 1656 3500 
L 1656 2988 
Q 1863 3284 2130 3434 
Q 2397 3584 2719 3584 
Q 3081 3584 3359 3409 
Q 3638 3234 3781 2919 
z
" transform="scale(0.015625)"/>
      <path id="DejaVuSans-Bold-20" transform="scale(0.015625)"/>
      <path id="DejaVuSans-Bold-6e" d="M 4056 2131 
L 4056 0 
L 2931 0 
L 2931 347 
L 2931 1631 
Q 2931 2084 2911 2256 
Q 2891 2428 2841 2509 
Q 2775 2619 2662 2680 
Q 2550 2741 2406 2741 
Q 2056 2741 1856 2470 
Q 1656 2200 1656 1722 
L 1656 0 
L 538 0 
L 538 3500 
L 1656 3500 
L 1656 2988 
Q 1909 3294 2193 3439 
Q 2478 3584 2822 3584 
Q 3428 3584 3742 3212 
Q 4056 2841 4056 2131 
z
" transform="scale(0.015625)"/>
      <path id="DejaVuSans-Bold-61" d="M 2106 1575 
Q 1756 1575 1579 1456 
Q 1403 1338 1403 1106 
Q 1403 894 1545 773 
Q 1688 653 1941 653 
Q 2256 653 2472 879 
Q 2688 1106 2688 1447 
L 2688 1575 
L 2106 1575 
z
M 3816 1997 
L 3816 0 
L 2688 0 
L 2688 519 
Q 2463 200 2181 54 
Q 1900 -91 1497 -91 
Q 953 -91 614 226 
Q 275 544 275 1050 
Q 275 1666 698 1953 
Q 1122 2241 2028 2241 
L 2688 2241 
L 2688 2328 
Q 2688 2594 2478 2717 
Q 2269 2841 1825 2841 
Q 1466 2841 1156 2769 
Q 847 2697 581 2553 
L 581 3406 
Q 941 3494 1303 3539 
Q 1666 3584 2028 3584 
Q 2975 3584 3395 3211 
Q 3816 2838 3816 1997 
z
" transform="scale(0.015625)"/>
      <path id="DejaVuSans-Bold-74" d="M 1759 4494 
L 1759 3500 
L 2913 3500 
L 2913 2700 
L 1759 2700 
L 1759 1216 
Q 1759 972 1856 886 
Q 1953 800 2241 800 
L 2816 800 
L 2816 0 
L 1856 0 
Q 1194 0 917 276 
Q 641 553 641 1216 
L 641 2700 
L 84 2700 
L 84 3500 
L 641 3500 
L 641 4494 
L 1759 4494 
z
" transform="scale(0.015625)"/>
      <path id="DejaVuSans-Bold-76" d="M 97 3500 
L 1216 3500 
L 2088 1081 
L 2956 3500 
L 4078 3500 
L 2700 0 
L 1472 0 
L 97 3500 
z
" transform="scale(0.015625)"/>
      <path id="DejaVuSans-Bold-44" d="M 1791 3756 
L 1791 909 
L 2222 909 
Q 2959 909 3348 1275 
Q 3738 1641 3738 2338 
Q 3738 3031 3350 3393 
Q 2963 3756 2222 3756 
L 1791 3756 
z
M 588 4666 
L 1856 4666 
Q 2919 4666 3439 4514 
Q 3959 4363 4331 4000 
Q 4659 3684 4818 3271 
Q 4978 2859 4978 2338 
Q 4978 1809 4818 1395 
Q 4659 981 4331 666 
Q 3956 303 3431 151 
Q 2906 0 1856 0 
L 588 0 
L 588 4666 
z
" transform="scale(0.015625)"/>
      <path id="DejaVuSans-Bold-45" d="M 588 4666 
L 3834 4666 
L 3834 3756 
L 1791 3756 
L 1791 2888 
L 3713 2888 
L 3713 1978 
L 1791 1978 
L 1791 909 
L 3903 909 
L 3903 0 
L 588 0 
L 588 4666 
z
" transform="scale(0.015625)"/>
      <path id="DejaVuSans-Bold-58" d="M 3188 2381 
L 4806 0 
L 3553 0 
L 2463 1594 
L 1381 0 
L 122 0 
L 1741 2381 
L 184 4666 
L 1441 4666 
L 2463 3163 
L 3481 4666 
L 4744 4666 
L 3188 2381 
z
" transform="scale(0.015625)"/>
      <path id="DejaVuSans-Bold-50" d="M 588 4666 
L 2584 4666 
Q 3475 4666 3951 4270 
Q 4428 3875 4428 3144 
Q 4428 2409 3951 2014 
Q 3475 1619 2584 1619 
L 1791 1619 
L 1791 0 
L 588 0 
L 588 4666 
z
M 1791 3794 
L 1791 2491 
L 2456 2491 
Q 2806 2491 2997 2661 
Q 3188 2831 3188 3144 
Q 3188 3456 2997 3625 
Q 2806 3794 2456 3794 
L 1791 3794 
z
" transform="scale(0.015625)"/>
      <path id="DejaVuSans-Bold-49" d="M 588 4666 
L 1791 4666 
L 1791 0 
L 588 0 
L 588 4666 
z
" transform="scale(0.015625)"/>
      <path id="DejaVuSans-Bold-32" d="M 1844 884 
L 3897 884 
L 3897 0 
L 506 0 
L 506 884 
L 2209 2388 
Q 2438 2594 2547 2791 
Q 2656 2988 2656 3200 
Q 2656 3528 2436 3728 
Q 2216 3928 1850 3928 
Q 1569 3928 1234 3808 
Q 900 3688 519 3450 
L 519 4475 
Q 925 4609 1322 4679 
Q 1719 4750 2100 4750 
Q 2938 4750 3402 4381 
Q 3866 4013 3866 3353 
Q 3866 2972 3669 2642 
Q 3472 2313 2841 1759 
L 1844 884 
z
" transform="scale(0.015625)"/>
      <path id="DejaVuSans-Bold-2e" d="M 653 1209 
L 1778 1209 
L 1778 0 
L 653 0 
L 653 1209 
z
" transform="scale(0.015625)"/>
      <path id="DejaVuSans-Bold-30" d="M 2944 2338 
Q 2944 3213 2780 3570 
Q 2616 3928 2228 3928 
Q 1841 3928 1675 3570 
Q 1509 3213 1509 2338 
Q 1509 1453 1675 1090 
Q 1841 728 2228 728 
Q 2613 728 2778 1090 
Q 2944 1453 2944 2338 
z
M 4147 2328 
Q 4147 1169 3647 539 
Q 3147 -91 2228 -91 
Q 1306 -91 806 539 
Q 306 1169 306 2328 
Q 306 3491 806 4120 
Q 1306 4750 2228 4750 
Q 3147 4750 3647 4120 
Q 4147 3491 4147 2328 
z
" transform="scale(0.015625)"/>
      <path id="DejaVuSans-Bold-2014" d="M 344 2156 
L 6056 2156 
L 6056 1350 
L 344 1350 
L 344 2156 
z
" transform="scale(0.015625)"/>
      <path id="DejaVuSans-Bold-73" d="M 3272 3391 
L 3272 2541 
Q 2913 2691 2578 2766 
Q 2244 2841 1947 2841 
Q 1628 2841 1473 2761 
Q 1319 2681 1319 2516 
Q 1319 2381 1436 2309 
Q 1553 2238 1856 2203 
L 2053 2175 
Q 2913 2066 3209 1816 
Q 3506 1566 3506 1031 
Q 3506 472 3093 190 
Q 2681 -91 1863 -91 
Q 1516 -91 1145 -36 
Q 775 19 384 128 
L 384 978 
Q 719 816 1070 734 
Q 1422 653 1784 653 
Q 2113 653 2278 743 
Q 2444 834 2444 1013 
Q 2444 1163 2330 1236 
Q 2216 1309 1875 1350 
L 1678 1375 
Q 931 1469 631 1722 
Q 331 1975 331 2491 
Q 331 3047 712 3315 
Q 1094 3584 1881 3584 
Q 2191 3584 2531 3537 
Q 2872 3491 3272 3391 
z
" transform="scale(0.015625)"/>
      <path id="DejaVuSans-Bold-72" d="M 3138 2547 
Q 2991 2616 2845 2648 
Q 2700 2681 2553 2681 
Q 2122 2681 1889 2404 
Q 1656 2128 1656 1613 
L 1656 0 
L 538 0 
L 538 3500 
L 1656 3500 
L 1656 2925 
Q 1872 3269 2151 3426 
Q 2431 3584 2822 3584 
Q 2878 3584 2943 3579 
Q 3009 3575 3134 3559 
L 3138 2547 
z
" transform="scale(0.015625)"/>
      <path id="DejaVuSans-Bold-75" d="M 500 1363 
L 500 3500 
L 1625 3500 
L 1625 3150 
Q 1625 2866 1622 2436 
Q 1619 2006 1619 1863 
Q 1619 1441 1641 1255 
Q 1663 1069 1716 984 
Q 1784 875 1895 815 
Q 2006 756 2150 756 
Q 2500 756 2700 1025 
Q 2900 1294 2900 1772 
L 2900 3500 
L 4019 3500 
L 4019 0 
L 2900 0 
L 2900 506 
Q 2647 200 2364 54 
Q 2081 -91 1741 -91 
Q 1134 -91 817 281 
Q 500 653 500 1363 
z
" transform="scale(0.015625)"/>
      <path id="DejaVuSans-Bold-63" d="M 3366 3391 
L 3366 2478 
Q 3138 2634 2908 2709 
Q 2678 2784 2431 2784 
Q 1963 2784 1702 2511 
Q 1441 2238 1441 1747 
Q 1441 1256 1702 982 
Q 1963 709 2431 709 
Q 2694 709 2930 787 
Q 3166 866 3366 1019 
L 3366 103 
Q 3103 6 2833 -42 
Q 2563 -91 2291 -91 
Q 1344 -91 809 395 
Q 275 881 275 1747 
Q 275 2613 809 3098 
Q 1344 3584 2291 3584 
Q 2566 3584 2833 3536 
Q 3100 3488 3366 3391 
z
" transform="scale(0.015625)"/>
      <path id="DejaVuSans-Bold-6c" d="M 538 4863 
L 1656 4863 
L 1656 0 
L 538 0 
L 538 4863 
z
" transform="scale(0.015625)"/>
      <path id="DejaVuSans-Bold-26" d="M 2497 3097 
L 3775 1691 
Q 3941 1909 4027 2181 
Q 4113 2453 4128 2797 
L 5100 2797 
Q 5053 2228 4879 1784 
Q 4706 1341 4397 1006 
L 5313 0 
L 3988 0 
L 3681 341 
Q 3353 122 2990 15 
Q 2628 -91 2222 -91 
Q 1400 -91 892 342 
Q 384 775 384 1459 
Q 384 1916 607 2267 
Q 831 2619 1338 2950 
Q 1206 3116 1143 3281 
Q 1081 3447 1081 3628 
Q 1081 4138 1478 4444 
Q 1875 4750 2534 4750 
Q 2819 4750 3126 4704 
Q 3434 4659 3769 4569 
L 3769 3700 
Q 3475 3850 3212 3922 
Q 2950 3994 2700 3994 
Q 2459 3994 2326 3901 
Q 2194 3809 2194 3641 
Q 2194 3534 2270 3398 
Q 2347 3263 2497 3097 
z
M 1875 2322 
Q 1672 2175 1569 1989 
Q 1466 1803 1466 1581 
Q 1466 1222 1731 969 
Q 1997 716 2369 716 
Q 2578 716 2759 780 
Q 2941 844 3097 972 
L 1875 2322 
z
" transform="scale(0.015625)"/>
      <path id="DejaVuSans-Bold-70" d="M 1656 506 
L 1656 -1331 
L 538 -1331 
L 538 3500 
L 1656 3500 
L 1656 2988 
Q 1888 3294 2169 3439 
Q 2450 3584 2816 3584 
Q 3463 3584 3878 3070 
Q 4294 2556 4294 1747 
Q 4294 938 3878 423 
Q 3463 -91 2816 -91 
Q 2450 -91 2169 54 
Q 1888 200 1656 506 
z
M 2400 2772 
Q 2041 2772 1848 2508 
Q 1656 2244 1656 1747 
Q 1656 1250 1848 986 
Q 2041 722 2400 722 
Q 2759 722 2948 984 
Q 3138 1247 3138 1747 
Q 3138 2247 2948 2509 
Q 2759 2772 2400 2772 
z
" transform="scale(0.015625)"/>
      <path id="DejaVuSans-Bold-77" d="M 225 3500 
L 1313 3500 
L 1900 1088 
L 2491 3500 
L 3425 3500 
L 4013 1113 
L 4603 3500 
L 5691 3500 
L 4769 0 
L 3547 0 
L 2956 2406 
L 2369 0 
L 1147 0 
L 225 3500 
z
" transform="scale(0.015625)"/>
     </defs>
     <use xlink:href="#DejaVuSans-Bold-4e"/>
     <use xlink:href="#DejaVuSans-Bold-65" transform="translate(83.691406 0)"/>
     <use xlink:href="#DejaVuSans-Bold-71" transform="translate(151.513672 0)"/>
     <use xlink:href="#DejaVuSans-Bold-53" transform="translate(223.095703 0)"/>
     <use xlink:href="#DejaVuSans-Bold-69" transform="translate(295.117188 0)"/>
     <use xlink:href="#DejaVuSans-Bold-6d" transform="translate(329.394531 0)"/>
     <use xlink:href="#DejaVuSans-Bold-20" transform="translate(433.59375 0)"/>
     <use xlink:href="#DejaVuSans-Bold-6e" transform="translate(468.408203 0)"/>
     <use xlink:href="#DejaVuSans-Bold-61" transform="translate(539.599609 0)"/>
     <use xlink:href="#DejaVuSans-Bold-74" transform="translate(607.080078 0)"/>
     <use xlink:href="#DejaVuSans-Bold-69" transform="translate(654.882812 0)"/>
     <use xlink:href="#DejaVuSans-Bold-76" transform="translate(689.160156 0)"/>
     <use xlink:href="#DejaVuSans-Bold-65" transform="translate(754.345703 0)"/>
     <use xlink:href="#DejaVuSans-Bold-20" transform="translate(822.167969 0)"/>
     <use xlink:href="#DejaVuSans-Bold-44" transform="translate(856.982422 0)"/>
     <use xlink:href="#DejaVuSans-Bold-45" transform="translate(939.990234 0)"/>
     <use xlink:href="#DejaVuSans-Bold-58" transform="translate(1008.300781 0)"/>
     <use xlink:href="#DejaVuSans-Bold-50" transform="translate(1085.400391 0)"/>
     <use xlink:href="#DejaVuSans-Bold-49" transform="translate(1158.691406 0)"/>
     <use xlink:href="#DejaVuSans-Bold-20" transform="translate(1195.898438 0)"/>
     <use xlink:href="#DejaVuSans-Bold-32" transform="translate(1230.712891 0)"/>
     <use xlink:href="#DejaVuSans-Bold-2e" transform="translate(1300.292969 0)"/>
     <use xlink:href="#DejaVuSans-Bold-30" transform="translate(1338.28125 0)"/>
     <use xlink:href="#DejaVuSans-Bold-20" transform="translate(1407.861328 0)"/>
     <use xlink:href="#DejaVuSans-Bold-2014" transform="translate(1442.675781 0)"/>
     <use xlink:href="#DejaVuSans-Bold-20" transform="translate(1542.675781 0)"/>
     <use xlink:href="#DejaVuSans-Bold-73" transform="translate(1577.490234 0)"/>
     <use xlink:href="#DejaVuSans-Bold-74" transform="translate(1637.011719 0)"/>
     <use xlink:href="#DejaVuSans-Bold-72" transform="translate(1684.814453 0)"/>
     <use xlink:href="#DejaVuSans-Bold-75" transform="translate(1734.130859 0)"/>
     <use xlink:href="#DejaVuSans-Bold-63" transform="translate(1805.322266 0)"/>
     <use xlink:href="#DejaVuSans-Bold-74" transform="translate(1864.599609 0)"/>
     <use xlink:href="#DejaVuSans-Bold-75" transform="translate(1912.402344 0)"/>
     <use xlink:href="#DejaVuSans-Bold-72" transform="translate(1983.59375 0)"/>
     <use xlink:href="#DejaVuSans-Bold-61" transform="translate(2032.910156 0)"/>
     <use xlink:href="#DejaVuSans-Bold-6c" transform="translate(2100.390625 0)"/>
     <use xlink:href="#DejaVuSans-Bold-20" transform="translate(2134.667969 0)"/>
     <use xlink:href="#DejaVuSans-Bold-50" transform="translate(2169.482422 0)"/>
     <use xlink:href="#DejaVuSans-Bold-26" transform="translate(2242.773438 0)"/>
     <use xlink:href="#DejaVuSans-Bold-49" transform="translate(2329.980469 0)"/>
     <use xlink:href="#DejaVuSans-Bold-44" transform="translate(2367.1875 0)"/>
     <use xlink:href="#DejaVuSans-Bold-20" transform="translate(2450.195312 0)"/>
     <use xlink:href="#DejaVuSans-Bold-70" transform="translate(2485.009766 0)"/>
     <use xlink:href="#DejaVuSans-Bold-72" transform="translate(2556.591797 0)"/>
     <use xlink:href="#DejaVuSans-Bold-65" transform="translate(2605.908203 0)"/>
     <use xlink:href="#DejaVuSans-Bold-76" transform="translate(2673.730469 0)"/>
     <use xlink:href="#DejaVuSans-Bold-69" transform="translate(2738.916016 0)"/>
     <use xlink:href="#DejaVuSans-Bold-65" transform="translate(2773.193359 0)"/>
     <use xlink:href="#DejaVuSans-Bold-77" transform="translate(2841.015625 0)"/>
    </g>
   </g>
   <g id="text_6">
    <!-- DEXPI_2_0_NATIVE · 8 displayed objects · 6 displayed references -->
    <g style="fill: #526471" transform="translate(78.971429 49.25589) scale(0.1 -0.1)">
     <defs>
      <path id="DejaVuSans-44" d="M 1259 4147 
L 1259 519 
L 2022 519 
Q 2988 519 3436 956 
Q 3884 1394 3884 2338 
Q 3884 3275 3436 3711 
Q 2988 4147 2022 4147 
L 1259 4147 
z
M 628 4666 
L 1925 4666 
Q 3281 4666 3915 4102 
Q 4550 3538 4550 2338 
Q 4550 1131 3912 565 
Q 3275 0 1925 0 
L 628 0 
L 628 4666 
z
" transform="scale(0.015625)"/>
      <path id="DejaVuSans-45" d="M 628 4666 
L 3578 4666 
L 3578 4134 
L 1259 4134 
L 1259 2753 
L 3481 2753 
L 3481 2222 
L 1259 2222 
L 1259 531 
L 3634 531 
L 3634 0 
L 628 0 
L 628 4666 
z
" transform="scale(0.015625)"/>
      <path id="DejaVuSans-58" d="M 403 4666 
L 1081 4666 
L 2241 2931 
L 3406 4666 
L 4084 4666 
L 2584 2425 
L 4184 0 
L 3506 0 
L 2194 1984 
L 872 0 
L 191 0 
L 1856 2491 
L 403 4666 
z
" transform="scale(0.015625)"/>
      <path id="DejaVuSans-5f" d="M 3263 -1063 
L 3263 -1509 
L -63 -1509 
L -63 -1063 
L 3263 -1063 
z
" transform="scale(0.015625)"/>
      <path id="DejaVuSans-32" d="M 1228 531 
L 3431 531 
L 3431 0 
L 469 0 
L 469 531 
Q 828 903 1448 1529 
Q 2069 2156 2228 2338 
Q 2531 2678 2651 2914 
Q 2772 3150 2772 3378 
Q 2772 3750 2511 3984 
Q 2250 4219 1831 4219 
Q 1534 4219 1204 4116 
Q 875 4013 500 3803 
L 500 4441 
Q 881 4594 1212 4672 
Q 1544 4750 1819 4750 
Q 2544 4750 2975 4387 
Q 3406 4025 3406 3419 
Q 3406 3131 3298 2873 
Q 3191 2616 2906 2266 
Q 2828 2175 2409 1742 
Q 1991 1309 1228 531 
z
" transform="scale(0.015625)"/>
      <path id="DejaVuSans-30" d="M 2034 4250 
Q 1547 4250 1301 3770 
Q 1056 3291 1056 2328 
Q 1056 1369 1301 889 
Q 1547 409 2034 409 
Q 2525 409 2770 889 
Q 3016 1369 3016 2328 
Q 3016 3291 2770 3770 
Q 2525 4250 2034 4250 
z
M 2034 4750 
Q 2819 4750 3233 4129 
Q 3647 3509 3647 2328 
Q 3647 1150 3233 529 
Q 2819 -91 2034 -91 
Q 1250 -91 836 529 
Q 422 1150 422 2328 
Q 422 3509 836 4129 
Q 1250 4750 2034 4750 
z
" transform="scale(0.015625)"/>
      <path id="DejaVuSans-41" d="M 2188 4044 
L 1331 1722 
L 3047 1722 
L 2188 4044 
z
M 1831 4666 
L 2547 4666 
L 4325 0 
L 3669 0 
L 3244 1197 
L 1141 1197 
L 716 0 
L 50 0 
L 1831 4666 
z
" transform="scale(0.015625)"/>
      <path id="DejaVuSans-54" d="M -19 4666 
L 3928 4666 
L 3928 4134 
L 2272 4134 
L 2272 0 
L 1638 0 
L 1638 4134 
L -19 4134 
L -19 4666 
z
" transform="scale(0.015625)"/>
      <path id="DejaVuSans-56" d="M 1831 0 
L 50 4666 
L 709 4666 
L 2188 738 
L 3669 4666 
L 4325 4666 
L 2547 0 
L 1831 0 
z
" transform="scale(0.015625)"/>
      <path id="DejaVuSans-b7" d="M 684 2619 
L 1344 2619 
L 1344 1825 
L 684 1825 
L 684 2619 
z
" transform="scale(0.015625)"/>
      <path id="DejaVuSans-38" d="M 2034 2216 
Q 1584 2216 1326 1975 
Q 1069 1734 1069 1313 
Q 1069 891 1326 650 
Q 1584 409 2034 409 
Q 2484 409 2743 651 
Q 3003 894 3003 1313 
Q 3003 1734 2745 1975 
Q 2488 2216 2034 2216 
z
M 1403 2484 
Q 997 2584 770 2862 
Q 544 3141 544 3541 
Q 544 4100 942 4425 
Q 1341 4750 2034 4750 
Q 2731 4750 3128 4425 
Q 3525 4100 3525 3541 
Q 3525 3141 3298 2862 
Q 3072 2584 2669 2484 
Q 3125 2378 3379 2068 
Q 3634 1759 3634 1313 
Q 3634 634 3220 271 
Q 2806 -91 2034 -91 
Q 1263 -91 848 271 
Q 434 634 434 1313 
Q 434 1759 690 2068 
Q 947 2378 1403 2484 
z
M 1172 3481 
Q 1172 3119 1398 2916 
Q 1625 2713 2034 2713 
Q 2441 2713 2670 2916 
Q 2900 3119 2900 3481 
Q 2900 3844 2670 4047 
Q 2441 4250 2034 4250 
Q 1625 4250 1398 4047 
Q 1172 3844 1172 3481 
z
" transform="scale(0.015625)"/>
      <path id="DejaVuSans-79" d="M 2059 -325 
Q 1816 -950 1584 -1140 
Q 1353 -1331 966 -1331 
L 506 -1331 
L 506 -850 
L 844 -850 
Q 1081 -850 1212 -737 
Q 1344 -625 1503 -206 
L 1606 56 
L 191 3500 
L 800 3500 
L 1894 763 
L 2988 3500 
L 3597 3500 
L 2059 -325 
z
" transform="scale(0.015625)"/>
      <path id="DejaVuSans-62" d="M 3116 1747 
Q 3116 2381 2855 2742 
Q 2594 3103 2138 3103 
Q 1681 3103 1420 2742 
Q 1159 2381 1159 1747 
Q 1159 1113 1420 752 
Q 1681 391 2138 391 
Q 2594 391 2855 752 
Q 3116 1113 3116 1747 
z
M 1159 2969 
Q 1341 3281 1617 3432 
Q 1894 3584 2278 3584 
Q 2916 3584 3314 3078 
Q 3713 2572 3713 1747 
Q 3713 922 3314 415 
Q 2916 -91 2278 -91 
Q 1894 -91 1617 61 
Q 1341 213 1159 525 
L 1159 0 
L 581 0 
L 581 4863 
L 1159 4863 
L 1159 2969 
z
" transform="scale(0.015625)"/>
      <path id="DejaVuSans-6a" d="M 603 3500 
L 1178 3500 
L 1178 -63 
Q 1178 -731 923 -1031 
Q 669 -1331 103 -1331 
L -116 -1331 
L -116 -844 
L 38 -844 
Q 366 -844 484 -692 
Q 603 -541 603 -63 
L 603 3500 
z
M 603 4863 
L 1178 4863 
L 1178 4134 
L 603 4134 
L 603 4863 
z
" transform="scale(0.015625)"/>
      <path id="DejaVuSans-36" d="M 2113 2584 
Q 1688 2584 1439 2293 
Q 1191 2003 1191 1497 
Q 1191 994 1439 701 
Q 1688 409 2113 409 
Q 2538 409 2786 701 
Q 3034 994 3034 1497 
Q 3034 2003 2786 2293 
Q 2538 2584 2113 2584 
z
M 3366 4563 
L 3366 3988 
Q 3128 4100 2886 4159 
Q 2644 4219 2406 4219 
Q 1781 4219 1451 3797 
Q 1122 3375 1075 2522 
Q 1259 2794 1537 2939 
Q 1816 3084 2150 3084 
Q 2853 3084 3261 2657 
Q 3669 2231 3669 1497 
Q 3669 778 3244 343 
Q 2819 -91 2113 -91 
Q 1303 -91 875 529 
Q 447 1150 447 2328 
Q 447 3434 972 4092 
Q 1497 4750 2381 4750 
Q 2619 4750 2861 4703 
Q 3103 4656 3366 4563 
z
" transform="scale(0.015625)"/>
      <path id="DejaVuSans-66" d="M 2375 4863 
L 2375 4384 
L 1825 4384 
Q 1516 4384 1395 4259 
Q 1275 4134 1275 3809 
L 1275 3500 
L 2222 3500 
L 2222 3053 
L 1275 3053 
L 1275 0 
L 697 0 
L 697 3053 
L 147 3053 
L 147 3500 
L 697 3500 
L 697 3744 
Q 697 4328 969 4595 
Q 1241 4863 1831 4863 
L 2375 4863 
z
" transform="scale(0.015625)"/>
     </defs>
     <use xlink:href="#DejaVuSans-44"/>
     <use xlink:href="#DejaVuSans-45" transform="translate(77.001953 0)"/>
     <use xlink:href="#DejaVuSans-58" transform="translate(140.185547 0)"/>
     <use xlink:href="#DejaVuSans-50" transform="translate(208.691406 0)"/>
     <use xlink:href="#DejaVuSans-49" transform="translate(268.994141 0)"/>
     <use xlink:href="#DejaVuSans-5f" transform="translate(298.486328 0)"/>
     <use xlink:href="#DejaVuSans-32" transform="translate(348.486328 0)"/>
     <use xlink:href="#DejaVuSans-5f" transform="translate(412.109375 0)"/>
     <use xlink:href="#DejaVuSans-30" transform="translate(462.109375 0)"/>
     <use xlink:href="#DejaVuSans-5f" transform="translate(525.732422 0)"/>
     <use xlink:href="#DejaVuSans-4e" transform="translate(575.732422 0)"/>
     <use xlink:href="#DejaVuSans-41" transform="translate(650.537109 0)"/>
     <use xlink:href="#DejaVuSans-54" transform="translate(711.195312 0)"/>
     <use xlink:href="#DejaVuSans-49" transform="translate(772.279297 0)"/>
     <use xlink:href="#DejaVuSans-56" transform="translate(801.771484 0)"/>
     <use xlink:href="#DejaVuSans-45" transform="translate(870.179688 0)"/>
     <use xlink:href="#DejaVuSans-20" transform="translate(933.363281 0)"/>
     <use xlink:href="#DejaVuSans-b7" transform="translate(965.150391 0)"/>
     <use xlink:href="#DejaVuSans-20" transform="translate(996.9375 0)"/>
     <use xlink:href="#DejaVuSans-38" transform="translate(1028.724609 0)"/>
     <use xlink:href="#DejaVuSans-20" transform="translate(1092.347656 0)"/>
     <use xlink:href="#DejaVuSans-64" transform="translate(1124.134766 0)"/>
     <use xlink:href="#DejaVuSans-69" transform="translate(1187.611328 0)"/>
     <use xlink:href="#DejaVuSans-73" transform="translate(1215.394531 0)"/>
     <use xlink:href="#DejaVuSans-70" transform="translate(1267.494141 0)"/>
     <use xlink:href="#DejaVuSans-6c" transform="translate(1330.970703 0)"/>
     <use xlink:href="#DejaVuSans-61" transform="translate(1358.753906 0)"/>
     <use xlink:href="#DejaVuSans-79" transform="translate(1420.033203 0)"/>
     <use xlink:href="#DejaVuSans-65" transform="translate(1479.212891 0)"/>
     <use xlink:href="#DejaVuSans-64" transform="translate(1540.736328 0)"/>
     <use xlink:href="#DejaVuSans-20" transform="translate(1604.212891 0)"/>
     <use xlink:href="#DejaVuSans-6f" transform="translate(1636 0)"/>
     <use xlink:href="#DejaVuSans-62" transform="translate(1697.181641 0)"/>
     <use xlink:href="#DejaVuSans-6a" transform="translate(1760.658203 0)"/>
     <use xlink:href="#DejaVuSans-65" transform="translate(1788.441406 0)"/>
     <use xlink:href="#DejaVuSans-63" transform="translate(1849.964844 0)"/>
     <use xlink:href="#DejaVuSans-74" transform="translate(1904.945312 0)"/>
     <use xlink:href="#DejaVuSans-73" transform="translate(1944.154297 0)"/>
     <use xlink:href="#DejaVuSans-20" transform="translate(1996.253906 0)"/>
     <use xlink:href="#DejaVuSans-b7" transform="translate(2028.041016 0)"/>
     <use xlink:href="#DejaVuSans-20" transform="translate(2059.828125 0)"/>
     <use xlink:href="#DejaVuSans-36" transform="translate(2091.615234 0)"/>
     <use xlink:href="#DejaVuSans-20" transform="translate(2155.238281 0)"/>
     <use xlink:href="#DejaVuSans-64" transform="translate(2187.025391 0)"/>
     <use xlink:href="#DejaVuSans-69" transform="translate(2250.501953 0)"/>
     <use xlink:href="#DejaVuSans-73" transform="translate(2278.285156 0)"/>
     <use xlink:href="#DejaVuSans-70" transform="translate(2330.384766 0)"/>
     <use xlink:href="#DejaVuSans-6c" transform="translate(2393.861328 0)"/>
     <use xlink:href="#DejaVuSans-61" transform="translate(2421.644531 0)"/>
     <use xlink:href="#DejaVuSans-79" transform="translate(2482.923828 0)"/>
     <use xlink:href="#DejaVuSans-65" transform="translate(2542.103516 0)"/>
     <use xlink:href="#DejaVuSans-64" transform="translate(2603.626953 0)"/>
     <use xlink:href="#DejaVuSans-20" transform="translate(2667.103516 0)"/>
     <use xlink:href="#DejaVuSans-72" transform="translate(2698.890625 0)"/>
     <use xlink:href="#DejaVuSans-65" transform="translate(2737.753906 0)"/>
     <use xlink:href="#DejaVuSans-66" transform="translate(2799.277344 0)"/>
     <use xlink:href="#DejaVuSans-65" transform="translate(2834.482422 0)"/>
     <use xlink:href="#DejaVuSans-72" transform="translate(2896.005859 0)"/>
     <use xlink:href="#DejaVuSans-65" transform="translate(2934.869141 0)"/>
     <use xlink:href="#DejaVuSans-6e" transform="translate(2996.392578 0)"/>
     <use xlink:href="#DejaVuSans-63" transform="translate(3059.771484 0)"/>
     <use xlink:href="#DejaVuSans-65" transform="translate(3114.751953 0)"/>
     <use xlink:href="#DejaVuSans-73" transform="translate(3176.275391 0)"/>
    </g>
   </g>
   <g id="text_7">
    <!-- Documentation preview — verify symbols, layout and round-trip fidelity in the target CAE tool before controlled issue. -->
    <g style="fill: #7a3e2b" transform="translate(78.971429 577.380822) scale(0.085 -0.085)">
     <defs>
      <path id="DejaVuSans-77" d="M 269 3500 
L 844 3500 
L 1563 769 
L 2278 3500 
L 2956 3500 
L 3675 769 
L 4391 3500 
L 4966 3500 
L 4050 0 
L 3372 0 
L 2619 2869 
L 1863 0 
L 1184 0 
L 269 3500 
z
" transform="scale(0.015625)"/>
      <path id="DejaVuSans-2014" d="M 313 1978 
L 6088 1978 
L 6088 1528 
L 313 1528 
L 313 1978 
z
" transform="scale(0.015625)"/>
      <path id="DejaVuSans-2c" d="M 750 794 
L 1409 794 
L 1409 256 
L 897 -744 
L 494 -744 
L 750 256 
L 750 794 
z
" transform="scale(0.015625)"/>
      <path id="DejaVuSans-2d" d="M 313 2009 
L 1997 2009 
L 1997 1497 
L 313 1497 
L 313 2009 
z
" transform="scale(0.015625)"/>
      <path id="DejaVuSans-68" d="M 3513 2113 
L 3513 0 
L 2938 0 
L 2938 2094 
Q 2938 2591 2744 2837 
Q 2550 3084 2163 3084 
Q 1697 3084 1428 2787 
Q 1159 2491 1159 1978 
L 1159 0 
L 581 0 
L 581 4863 
L 1159 4863 
L 1159 2956 
Q 1366 3272 1645 3428 
Q 1925 3584 2291 3584 
Q 2894 3584 3203 3211 
Q 3513 2838 3513 2113 
z
" transform="scale(0.015625)"/>
      <path id="DejaVuSans-43" d="M 4122 4306 
L 4122 3641 
Q 3803 3938 3442 4084 
Q 3081 4231 2675 4231 
Q 1875 4231 1450 3742 
Q 1025 3253 1025 2328 
Q 1025 1406 1450 917 
Q 1875 428 2675 428 
Q 3081 428 3442 575 
Q 3803 722 4122 1019 
L 4122 359 
Q 3791 134 3420 21 
Q 3050 -91 2638 -91 
Q 1578 -91 968 557 
Q 359 1206 359 2328 
Q 359 3453 968 4101 
Q 1578 4750 2638 4750 
Q 3056 4750 3426 4639 
Q 3797 4528 4122 4306 
z
" transform="scale(0.015625)"/>
      <path id="DejaVuSans-2e" d="M 684 794 
L 1344 794 
L 1344 0 
L 684 0 
L 684 794 
z
" transform="scale(0.015625)"/>
     </defs>
     <use xlink:href="#DejaVuSans-44"/>
     <use xlink:href="#DejaVuSans-6f" transform="translate(77.001953 0)"/>
     <use xlink:href="#DejaVuSans-63" transform="translate(138.183594 0)"/>
     <use xlink:href="#DejaVuSans-75" transform="translate(193.164062 0)"/>
     <use xlink:href="#DejaVuSans-6d" transform="translate(256.542969 0)"/>
     <use xlink:href="#DejaVuSans-65" transform="translate(353.955078 0)"/>
     <use xlink:href="#DejaVuSans-6e" transform="translate(415.478516 0)"/>
     <use xlink:href="#DejaVuSans-74" transform="translate(478.857422 0)"/>
     <use xlink:href="#DejaVuSans-61" transform="translate(518.066406 0)"/>
     <use xlink:href="#DejaVuSans-74" transform="translate(579.345703 0)"/>
     <use xlink:href="#DejaVuSans-69" transform="translate(618.554688 0)"/>
     <use xlink:href="#DejaVuSans-6f" transform="translate(646.337891 0)"/>
     <use xlink:href="#DejaVuSans-6e" transform="translate(707.519531 0)"/>
     <use xlink:href="#DejaVuSans-20" transform="translate(770.898438 0)"/>
     <use xlink:href="#DejaVuSans-70" transform="translate(802.685547 0)"/>
     <use xlink:href="#DejaVuSans-72" transform="translate(866.162109 0)"/>
     <use xlink:href="#DejaVuSans-65" transform="translate(905.025391 0)"/>
     <use xlink:href="#DejaVuSans-76" transform="translate(966.548828 0)"/>
     <use xlink:href="#DejaVuSans-69" transform="translate(1025.728516 0)"/>
     <use xlink:href="#DejaVuSans-65" transform="translate(1053.511719 0)"/>
     <use xlink:href="#DejaVuSans-77" transform="translate(1115.035156 0)"/>
     <use xlink:href="#DejaVuSans-20" transform="translate(1196.822266 0)"/>
     <use xlink:href="#DejaVuSans-2014" transform="translate(1228.609375 0)"/>
     <use xlink:href="#DejaVuSans-20" transform="translate(1328.609375 0)"/>
     <use xlink:href="#DejaVuSans-76" transform="translate(1360.396484 0)"/>
     <use xlink:href="#DejaVuSans-65" transform="translate(1419.576172 0)"/>
     <use xlink:href="#DejaVuSans-72" transform="translate(1481.099609 0)"/>
     <use xlink:href="#DejaVuSans-69" transform="translate(1522.212891 0)"/>
     <use xlink:href="#DejaVuSans-66" transform="translate(1549.996094 0)"/>
     <use xlink:href="#DejaVuSans-79" transform="translate(1583.451172 0)"/>
     <use xlink:href="#DejaVuSans-20" transform="translate(1642.630859 0)"/>
     <use xlink:href="#DejaVuSans-73" transform="translate(1674.417969 0)"/>
     <use xlink:href="#DejaVuSans-79" transform="translate(1726.517578 0)"/>
     <use xlink:href="#DejaVuSans-6d" transform="translate(1785.697266 0)"/>
     <use xlink:href="#DejaVuSans-62" transform="translate(1883.109375 0)"/>
     <use xlink:href="#DejaVuSans-6f" transform="translate(1946.585938 0)"/>
     <use xlink:href="#DejaVuSans-6c" transform="translate(2007.767578 0)"/>
     <use xlink:href="#DejaVuSans-73" transform="translate(2035.550781 0)"/>
     <use xlink:href="#DejaVuSans-2c" transform="translate(2087.650391 0)"/>
     <use xlink:href="#DejaVuSans-20" transform="translate(2119.4375 0)"/>
     <use xlink:href="#DejaVuSans-6c" transform="translate(2151.224609 0)"/>
     <use xlink:href="#DejaVuSans-61" transform="translate(2179.007812 0)"/>
     <use xlink:href="#DejaVuSans-79" transform="translate(2240.287109 0)"/>
     <use xlink:href="#DejaVuSans-6f" transform="translate(2299.466797 0)"/>
     <use xlink:href="#DejaVuSans-75" transform="translate(2360.648438 0)"/>
     <use xlink:href="#DejaVuSans-74" transform="translate(2424.027344 0)"/>
     <use xlink:href="#DejaVuSans-20" transform="translate(2463.236328 0)"/>
     <use xlink:href="#DejaVuSans-61" transform="translate(2495.023438 0)"/>
     <use xlink:href="#DejaVuSans-6e" transform="translate(2556.302734 0)"/>
     <use xlink:href="#DejaVuSans-64" transform="translate(2619.681641 0)"/>
     <use xlink:href="#DejaVuSans-20" transform="translate(2683.158203 0)"/>
     <use xlink:href="#DejaVuSans-72" transform="translate(2714.945312 0)"/>
     <use xlink:href="#DejaVuSans-6f" transform="translate(2753.808594 0)"/>
     <use xlink:href="#DejaVuSans-75" transform="translate(2814.990234 0)"/>
     <use xlink:href="#DejaVuSans-6e" transform="translate(2878.369141 0)"/>
     <use xlink:href="#DejaVuSans-64" transform="translate(2941.748047 0)"/>
     <use xlink:href="#DejaVuSans-2d" transform="translate(3005.224609 0)"/>
     <use xlink:href="#DejaVuSans-74" transform="translate(3041.308594 0)"/>
     <use xlink:href="#DejaVuSans-72" transform="translate(3080.517578 0)"/>
     <use xlink:href="#DejaVuSans-69" transform="translate(3121.630859 0)"/>
     <use xlink:href="#DejaVuSans-70" transform="translate(3149.414062 0)"/>
     <use xlink:href="#DejaVuSans-20" transform="translate(3212.890625 0)"/>
     <use xlink:href="#DejaVuSans-66" transform="translate(3244.677734 0)"/>
     <use xlink:href="#DejaVuSans-69" transform="translate(3279.882812 0)"/>
     <use xlink:href="#DejaVuSans-64" transform="translate(3307.666016 0)"/>
     <use xlink:href="#DejaVuSans-65" transform="translate(3371.142578 0)"/>
     <use xlink:href="#DejaVuSans-6c" transform="translate(3432.666016 0)"/>
     <use xlink:href="#DejaVuSans-69" transform="translate(3460.449219 0)"/>
     <use xlink:href="#DejaVuSans-74" transform="translate(3488.232422 0)"/>
     <use xlink:href="#DejaVuSans-79" transform="translate(3527.441406 0)"/>
     <use xlink:href="#DejaVuSans-20" transform="translate(3586.621094 0)"/>
     <use xlink:href="#DejaVuSans-69" transform="translate(3618.408203 0)"/>
     <use xlink:href="#DejaVuSans-6e" transform="translate(3646.191406 0)"/>
     <use xlink:href="#DejaVuSans-20" transform="translate(3709.570312 0)"/>
     <use xlink:href="#DejaVuSans-74" transform="translate(3741.357422 0)"/>
     <use xlink:href="#DejaVuSans-68" transform="translate(3780.566406 0)"/>
     <use xlink:href="#DejaVuSans-65" transform="translate(3843.945312 0)"/>
     <use xlink:href="#DejaVuSans-20" transform="translate(3905.46875 0)"/>
     <use xlink:href="#DejaVuSans-74" transform="translate(3937.255859 0)"/>
     <use xlink:href="#DejaVuSans-61" transform="translate(3976.464844 0)"/>
     <use xlink:href="#DejaVuSans-72" transform="translate(4037.744141 0)"/>
     <use xlink:href="#DejaVuSans-67" transform="translate(4077.107422 0)"/>
     <use xlink:href="#DejaVuSans-65" transform="translate(4140.583984 0)"/>
     <use xlink:href="#DejaVuSans-74" transform="translate(4202.107422 0)"/>
     <use xlink:href="#DejaVuSans-20" transform="translate(4241.316406 0)"/>
     <use xlink:href="#DejaVuSans-43" transform="translate(4273.103516 0)"/>
     <use xlink:href="#DejaVuSans-41" transform="translate(4342.927734 0)"/>
     <use xlink:href="#DejaVuSans-45" transform="translate(4411.335938 0)"/>
     <use xlink:href="#DejaVuSans-20" transform="translate(4474.519531 0)"/>
     <use xlink:href="#DejaVuSans-74" transform="translate(4506.306641 0)"/>
     <use xlink:href="#DejaVuSans-6f" transform="translate(4545.515625 0)"/>
     <use xlink:href="#DejaVuSans-6f" transform="translate(4606.697266 0)"/>
     <use xlink:href="#DejaVuSans-6c" transform="translate(4667.878906 0)"/>
     <use xlink:href="#DejaVuSans-20" transform="translate(4695.662109 0)"/>
     <use xlink:href="#DejaVuSans-62" transform="translate(4727.449219 0)"/>
     <use xlink:href="#DejaVuSans-65" transform="translate(4790.925781 0)"/>
     <use xlink:href="#DejaVuSans-66" transform="translate(4852.449219 0)"/>
     <use xlink:href="#DejaVuSans-6f" transform="translate(4887.654297 0)"/>
     <use xlink:href="#DejaVuSans-72" transform="translate(4948.835938 0)"/>
     <use xlink:href="#DejaVuSans-65" transform="translate(4987.699219 0)"/>
     <use xlink:href="#DejaVuSans-20" transform="translate(5049.222656 0)"/>
     <use xlink:href="#DejaVuSans-63" transform="translate(5081.009766 0)"/>
     <use xlink:href="#DejaVuSans-6f" transform="translate(5135.990234 0)"/>
     <use xlink:href="#DejaVuSans-6e" transform="translate(5197.171875 0)"/>
     <use xlink:href="#DejaVuSans-74" transform="translate(5260.550781 0)"/>
     <use xlink:href="#DejaVuSans-72" transform="translate(5299.759766 0)"/>
     <use xlink:href="#DejaVuSans-6f" transform="translate(5338.623047 0)"/>
     <use xlink:href="#DejaVuSans-6c" transform="translate(5399.804688 0)"/>
     <use xlink:href="#DejaVuSans-6c" transform="translate(5427.587891 0)"/>
     <use xlink:href="#DejaVuSans-65" transform="translate(5455.371094 0)"/>
     <use xlink:href="#DejaVuSans-64" transform="translate(5516.894531 0)"/>
     <use xlink:href="#DejaVuSans-20" transform="translate(5580.371094 0)"/>
     <use xlink:href="#DejaVuSans-69" transform="translate(5612.158203 0)"/>
     <use xlink:href="#DejaVuSans-73" transform="translate(5639.941406 0)"/>
     <use xlink:href="#DejaVuSans-73" transform="translate(5692.041016 0)"/>
     <use xlink:href="#DejaVuSans-75" transform="translate(5744.140625 0)"/>
     <use xlink:href="#DejaVuSans-65" transform="translate(5807.519531 0)"/>
     <use xlink:href="#DejaVuSans-2e" transform="translate(5869.042969 0)"/>
    </g>
   </g>
   <g id="text_8">
    <!-- 10-KA-001 -->
    <g style="fill: #1d2a33" transform="translate(59.461468 305.672527) scale(0.075 -0.075)">
     <defs>
      <path id="DejaVuSans-31" d="M 794 531 
L 1825 531 
L 1825 4091 
L 703 3866 
L 703 4441 
L 1819 4666 
L 2450 4666 
L 2450 531 
L 3481 531 
L 3481 0 
L 794 0 
L 794 531 
z
" transform="scale(0.015625)"/>
      <path id="DejaVuSans-4b" d="M 628 4666 
L 1259 4666 
L 1259 2694 
L 3353 4666 
L 4166 4666 
L 1850 2491 
L 4331 0 
L 3500 0 
L 1259 2247 
L 1259 0 
L 628 0 
L 628 4666 
z
" transform="scale(0.015625)"/>
     </defs>
     <use xlink:href="#DejaVuSans-31"/>
     <use xlink:href="#DejaVuSans-30" transform="translate(63.623047 0)"/>
     <use xlink:href="#DejaVuSans-2d" transform="translate(127.246094 0)"/>
     <use xlink:href="#DejaVuSans-4b" transform="translate(163.330078 0)"/>
     <use xlink:href="#DejaVuSans-41" transform="translate(227.15625 0)"/>
     <use xlink:href="#DejaVuSans-2d" transform="translate(293.314453 0)"/>
     <use xlink:href="#DejaVuSans-30" transform="translate(329.398438 0)"/>
     <use xlink:href="#DejaVuSans-30" transform="translate(393.021484 0)"/>
     <use xlink:href="#DejaVuSans-31" transform="translate(456.644531 0)"/>
    </g>
   </g>
   <g id="text_9">
    <!-- 10-PA-001 -->
    <g style="fill: #1d2a33" transform="translate(553.261523 305.672527) scale(0.075 -0.075)">
     <use xlink:href="#DejaVuSans-31"/>
     <use xlink:href="#DejaVuSans-30" transform="translate(63.623047 0)"/>
     <use xlink:href="#DejaVuSans-2d" transform="translate(127.246094 0)"/>
     <use xlink:href="#DejaVuSans-50" transform="translate(163.330078 0)"/>
     <use xlink:href="#DejaVuSans-41" transform="translate(217.257812 0)"/>
     <use xlink:href="#DejaVuSans-2d" transform="translate(283.416016 0)"/>
     <use xlink:href="#DejaVuSans-30" transform="translate(319.5 0)"/>
     <use xlink:href="#DejaVuSans-30" transform="translate(383.123047 0)"/>
     <use xlink:href="#DejaVuSans-31" transform="translate(446.746094 0)"/>
    </g>
   </g>
   <g id="text_10">
    <!-- 10-VA-001 -->
    <g style="fill: #1d2a33" transform="translate(1046.606306 305.672527) scale(0.075 -0.075)">
     <use xlink:href="#DejaVuSans-31"/>
     <use xlink:href="#DejaVuSans-30" transform="translate(63.623047 0)"/>
     <use xlink:href="#DejaVuSans-2d" transform="translate(127.246094 0)"/>
     <use xlink:href="#DejaVuSans-56" transform="translate(157.455078 0)"/>
     <use xlink:href="#DejaVuSans-41" transform="translate(219.488281 0)"/>
     <use xlink:href="#DejaVuSans-2d" transform="translate(285.646484 0)"/>
     <use xlink:href="#DejaVuSans-30" transform="translate(321.730469 0)"/>
     <use xlink:href="#DejaVuSans-30" transform="translate(385.353516 0)"/>
     <use xlink:href="#DejaVuSans-31" transform="translate(448.976562 0)"/>
    </g>
   </g>
   <g id="text_11">
    <!-- Pipe1 -->
    <g style="fill: #1d2a33" transform="translate(68.67885 402.724582) scale(0.075 -0.075)">
     <use xlink:href="#DejaVuSans-50"/>
     <use xlink:href="#DejaVuSans-69" transform="translate(58.052734 0)"/>
     <use xlink:href="#DejaVuSans-70" transform="translate(85.835938 0)"/>
     <use xlink:href="#DejaVuSans-65" transform="translate(149.3125 0)"/>
     <use xlink:href="#DejaVuSans-31" transform="translate(210.835938 0)"/>
    </g>
   </g>
   <g id="text_12">
    <!-- Pipe2 -->
    <g style="fill: #1d2a33" transform="translate(315.393136 402.724582) scale(0.075 -0.075)">
     <use xlink:href="#DejaVuSans-50"/>
     <use xlink:href="#DejaVuSans-69" transform="translate(58.052734 0)"/>
     <use xlink:href="#DejaVuSans-70" transform="translate(85.835938 0)"/>
     <use xlink:href="#DejaVuSans-65" transform="translate(149.3125 0)"/>
     <use xlink:href="#DejaVuSans-32" transform="translate(210.835938 0)"/>
    </g>
   </g>
   <g id="text_13">
    <!-- PipingNetworkSegment1 -->
    <g style="fill: #1d2a33" transform="translate(526.082812 402.724582) scale(0.075 -0.075)">
     <defs>
      <path id="DejaVuSans-6b" d="M 581 4863 
L 1159 4863 
L 1159 1991 
L 2875 3500 
L 3609 3500 
L 1753 1863 
L 3688 0 
L 2938 0 
L 1159 1709 
L 1159 0 
L 581 0 
L 581 4863 
z
" transform="scale(0.015625)"/>
      <path id="DejaVuSans-53" d="M 3425 4513 
L 3425 3897 
Q 3066 4069 2747 4153 
Q 2428 4238 2131 4238 
Q 1616 4238 1336 4038 
Q 1056 3838 1056 3469 
Q 1056 3159 1242 3001 
Q 1428 2844 1947 2747 
L 2328 2669 
Q 3034 2534 3370 2195 
Q 3706 1856 3706 1288 
Q 3706 609 3251 259 
Q 2797 -91 1919 -91 
Q 1588 -91 1214 -16 
Q 841 59 441 206 
L 441 856 
Q 825 641 1194 531 
Q 1563 422 1919 422 
Q 2459 422 2753 634 
Q 3047 847 3047 1241 
Q 3047 1584 2836 1778 
Q 2625 1972 2144 2069 
L 1759 2144 
Q 1053 2284 737 2584 
Q 422 2884 422 3419 
Q 422 4038 858 4394 
Q 1294 4750 2059 4750 
Q 2388 4750 2728 4690 
Q 3069 4631 3425 4513 
z
" transform="scale(0.015625)"/>
     </defs>
     <use xlink:href="#DejaVuSans-50"/>
     <use xlink:href="#DejaVuSans-69" transform="translate(58.052734 0)"/>
     <use xlink:href="#DejaVuSans-70" transform="translate(85.835938 0)"/>
     <use xlink:href="#DejaVuSans-69" transform="translate(149.3125 0)"/>
     <use xlink:href="#DejaVuSans-6e" transform="translate(177.095703 0)"/>
     <use xlink:href="#DejaVuSans-67" transform="translate(240.474609 0)"/>
     <use xlink:href="#DejaVuSans-4e" transform="translate(303.951172 0)"/>
     <use xlink:href="#DejaVuSans-65" transform="translate(378.755859 0)"/>
     <use xlink:href="#DejaVuSans-74" transform="translate(440.279297 0)"/>
     <use xlink:href="#DejaVuSans-77" transform="translate(479.488281 0)"/>
     <use xlink:href="#DejaVuSans-6f" transform="translate(561.275391 0)"/>
     <use xlink:href="#DejaVuSans-72" transform="translate(622.457031 0)"/>
     <use xlink:href="#DejaVuSans-6b" transform="translate(663.570312 0)"/>
     <use xlink:href="#DejaVuSans-53" transform="translate(721.480469 0)"/>
     <use xlink:href="#DejaVuSans-65" transform="translate(784.957031 0)"/>
     <use xlink:href="#DejaVuSans-67" transform="translate(846.480469 0)"/>
     <use xlink:href="#DejaVuSans-6d" transform="translate(909.957031 0)"/>
     <use xlink:href="#DejaVuSans-65" transform="translate(1007.369141 0)"/>
     <use xlink:href="#DejaVuSans-6e" transform="translate(1068.892578 0)"/>
     <use xlink:href="#DejaVuSans-74" transform="translate(1132.271484 0)"/>
     <use xlink:href="#DejaVuSans-31" transform="translate(1171.480469 0)"/>
    </g>
   </g>
   <g id="text_14">
    <!-- PipingNetworkSegment2 -->
    <g style="fill: #1d2a33" transform="translate(772.797098 402.724582) scale(0.075 -0.075)">
     <use xlink:href="#DejaVuSans-50"/>
     <use xlink:href="#DejaVuSans-69" transform="translate(58.052734 0)"/>
     <use xlink:href="#DejaVuSans-70" transform="translate(85.835938 0)"/>
     <use xlink:href="#DejaVuSans-69" transform="translate(149.3125 0)"/>
     <use xlink:href="#DejaVuSans-6e" transform="translate(177.095703 0)"/>
     <use xlink:href="#DejaVuSans-67" transform="translate(240.474609 0)"/>
     <use xlink:href="#DejaVuSans-4e" transform="translate(303.951172 0)"/>
     <use xlink:href="#DejaVuSans-65" transform="translate(378.755859 0)"/>
     <use xlink:href="#DejaVuSans-74" transform="translate(440.279297 0)"/>
     <use xlink:href="#DejaVuSans-77" transform="translate(479.488281 0)"/>
     <use xlink:href="#DejaVuSans-6f" transform="translate(561.275391 0)"/>
     <use xlink:href="#DejaVuSans-72" transform="translate(622.457031 0)"/>
     <use xlink:href="#DejaVuSans-6b" transform="translate(663.570312 0)"/>
     <use xlink:href="#DejaVuSans-53" transform="translate(721.480469 0)"/>
     <use xlink:href="#DejaVuSans-65" transform="translate(784.957031 0)"/>
     <use xlink:href="#DejaVuSans-67" transform="translate(846.480469 0)"/>
     <use xlink:href="#DejaVuSans-6d" transform="translate(909.957031 0)"/>
     <use xlink:href="#DejaVuSans-65" transform="translate(1007.369141 0)"/>
     <use xlink:href="#DejaVuSans-6e" transform="translate(1068.892578 0)"/>
     <use xlink:href="#DejaVuSans-74" transform="translate(1132.271484 0)"/>
     <use xlink:href="#DejaVuSans-32" transform="translate(1171.480469 0)"/>
    </g>
   </g>
   <g id="text_15">
    <!-- PipingNetworkSystem1 -->
    <g style="fill: #1d2a33" transform="translate(1022.402985 402.724582) scale(0.075 -0.075)">
     <use xlink:href="#DejaVuSans-50"/>
     <use xlink:href="#DejaVuSans-69" transform="translate(58.052734 0)"/>
     <use xlink:href="#DejaVuSans-70" transform="translate(85.835938 0)"/>
     <use xlink:href="#DejaVuSans-69" transform="translate(149.3125 0)"/>
     <use xlink:href="#DejaVuSans-6e" transform="translate(177.095703 0)"/>
     <use xlink:href="#DejaVuSans-67" transform="translate(240.474609 0)"/>
     <use xlink:href="#DejaVuSans-4e" transform="translate(303.951172 0)"/>
     <use xlink:href="#DejaVuSans-65" transform="translate(378.755859 0)"/>
     <use xlink:href="#DejaVuSans-74" transform="translate(440.279297 0)"/>
     <use xlink:href="#DejaVuSans-77" transform="translate(479.488281 0)"/>
     <use xlink:href="#DejaVuSans-6f" transform="translate(561.275391 0)"/>
     <use xlink:href="#DejaVuSans-72" transform="translate(622.457031 0)"/>
     <use xlink:href="#DejaVuSans-6b" transform="translate(663.570312 0)"/>
     <use xlink:href="#DejaVuSans-53" transform="translate(721.480469 0)"/>
     <use xlink:href="#DejaVuSans-79" transform="translate(784.957031 0)"/>
     <use xlink:href="#DejaVuSans-73" transform="translate(844.136719 0)"/>
     <use xlink:href="#DejaVuSans-74" transform="translate(896.236328 0)"/>
     <use xlink:href="#DejaVuSans-65" transform="translate(935.445312 0)"/>
     <use xlink:href="#DejaVuSans-6d" transform="translate(996.96875 0)"/>
     <use xlink:href="#DejaVuSans-31" transform="translate(1094.380859 0)"/>
    </g>
   </g>
  </g>
 </g>
 <defs>
  <clipPath id="pd29339aa30">
   <rect x="7.2" y="7.2" width="1130.4" height="590.4"/>
  </clipPath>
 </defs>
</svg>
